<svg width="41" height="41" viewBox="0 0 41 41" fill="none" xmlns="http://www.w3.org/2000/svg">
<g id="Group 1000004904">
<path id="Vector 375" d="M1.19707 0.167969C-0.19929 3.89166 1.77888 13.841 2.94251 18.3502L4.25172 21.5504L12.8338 9.33189C12.2519 8.6046 10.8555 6.97547 9.92459 6.27727C8.99366 5.57907 3.71835 1.91349 1.19707 0.167969Z" fill="#A55C15"/>
<path id="Vector 376" d="M40.2365 0.167969C41.633 3.89205 39.6546 13.8425 38.4908 18.3522L37.1815 21.5527L28.5986 9.33286C29.1804 8.6055 30.577 6.97619 31.508 6.27792C32.4391 5.57964 37.7149 1.91367 40.2365 0.167969Z" fill="#A55C15"/>
<path id="Union" fill-rule="evenodd" clip-rule="evenodd" d="M26.6134 30.772C33.071 30.772 38.306 25.537 38.306 19.0794C38.306 12.6217 33.071 7.38672 26.6134 7.38672C25.4087 7.38672 24.2467 7.56888 23.1532 7.90717C20.8682 8.61406 18.3354 8.77531 15.979 8.3652C15.3232 8.25107 14.6486 8.19157 13.9602 8.19157C7.50255 8.19157 2.26758 13.4265 2.26758 19.8842C2.26758 26.3419 7.50255 31.5768 13.9602 31.5768C15.1648 31.5768 16.3269 31.3947 17.4204 31.0564C19.7054 30.3495 22.2382 30.1883 24.5946 30.5984C25.2504 30.7125 25.9249 30.772 26.6134 30.772Z" fill="#D2863B"/>
<path id="Rectangle 40309" d="M4.0246 28.3148C2.87378 23.4744 5.71341 18.5801 10.4868 17.1768L11.0987 16.997C11.9555 16.7451 12.844 16.6172 13.737 16.6172L27.3999 16.6173C28.2685 16.6173 29.1328 16.7383 29.9681 16.9768L30.5743 17.1499C35.4894 18.5534 38.3678 23.6425 37.038 28.578L34.7135 37.2055C34.4935 38.0222 33.7529 38.5896 32.9071 38.5896H7.94562C7.07909 38.5896 6.32597 37.9946 6.12554 37.1515L4.0246 28.3148Z" fill="#D2863B"/>
<path id="Vector 378" d="M17.8158 21.4235C14.8352 21.2471 10.067 22.743 6.99471 23.9205C6.55177 24.0902 6.14059 23.5683 6.41832 23.1838L10.7234 17.2229C10.749 17.1875 10.781 17.1545 10.8155 17.1276C16.5095 12.688 18.3505 15.7383 18.3505 17.1695V20.937C18.3505 21.2216 18.0999 21.4403 17.8158 21.4235Z" fill="#A15D1D"/>
<path id="Vector 379" d="M23.7346 21.4244C26.7156 21.248 31.4848 22.7442 34.5575 23.9219C35.0005 24.0917 35.4117 23.5698 35.1339 23.1852L30.8281 17.2232C30.8025 17.1878 30.7705 17.1549 30.736 17.128C25.0412 12.6877 23.1999 15.7385 23.1999 17.1698V20.938C23.1999 21.2226 23.4504 21.4413 23.7346 21.4244Z" fill="#A15D1D"/>
<g id="Mask group">
<mask id="mask0_2220_2433" style="mask-type:alpha" maskUnits="userSpaceOnUse" x="6" y="14" width="13" height="10">
<path id="Vector 380" d="M17.8168 21.4235C14.8362 21.2471 10.068 22.743 6.99569 23.9205C6.55275 24.0902 6.14157 23.5683 6.4193 23.1838L10.7244 17.2229C10.75 17.1875 10.782 17.1545 10.8165 17.1276C16.5105 12.688 18.3514 15.7383 18.3515 17.1695V20.937C18.3515 21.2216 18.1009 21.4403 17.8168 21.4235Z" fill="#A15D1D"/>
</mask>
<g mask="url(#mask0_2220_2433)">
<g id="Group 1000004900">
<circle id="Ellipse 399" cx="15.1662" cy="20.0544" r="1.87082" fill="#2D2242"/>
<circle id="Ellipse 400" cx="16.2024" cy="19.5872" r="0.468017" fill="white"/>
</g>
</g>
</g>
<g id="Mask group_2">
<mask id="mask1_2220_2433" style="mask-type:alpha" maskUnits="userSpaceOnUse" x="23" y="14" width="13" height="10">
<path id="Vector 380_2" d="M23.735 21.4244C26.7161 21.248 31.4853 22.7442 34.558 23.9219C35.001 24.0917 35.4121 23.5698 35.1344 23.1852L30.8286 17.2232C30.803 17.1878 30.7709 17.1549 30.7365 17.128C25.0416 12.6877 23.2004 15.7385 23.2003 17.1698V20.938C23.2003 21.2226 23.4509 21.4413 23.735 21.4244Z" fill="#A15D1D"/>
</mask>
<g mask="url(#mask1_2220_2433)">
<g id="Group 1000004901">
<circle id="Ellipse 399_2" cx="26.7278" cy="20.0544" r="1.87082" fill="#2D2242"/>
<circle id="Ellipse 400_2" cx="27.7639" cy="19.5872" r="0.468017" fill="white"/>
</g>
</g>
</g>
<ellipse id="Ellipse 401" cx="20.7037" cy="29.713" rx="7.05326" ry="5.7657" fill="#73410B"/>
<path id="Rectangle 40311" d="M16.5684 31.5879H24.9871V36.7996C24.9871 39.1243 23.1025 41.0089 20.7777 41.0089C18.4529 41.0089 16.5684 39.1243 16.5684 36.7996V31.5879Z" fill="#ED6A9C"/>
<path id="Rectangle 40310" d="M12.7524 25.6673C12.7524 23.0842 14.8464 20.9902 17.4295 20.9902H23.9774C26.5604 20.9902 28.6544 23.0842 28.6544 25.6673V27.9382C28.6544 29.4881 27.398 30.7444 25.8482 30.7444H15.5587C14.0088 30.7444 12.7524 29.4881 12.7524 27.9382V25.6673Z" fill="#B57432"/>
<g id="Group 1000004902">
<rect id="Rectangle 40312" x="16.9614" y="23.9473" width="7.48329" height="2.92019" rx="1.46009" fill="#4F324F"/>
<rect id="Rectangle 40313" x="22.1626" y="25.7324" width="3.74164" height="2.92019" rx="1.46009" transform="rotate(90 22.1626 25.7324)" fill="#4F324F"/>
</g>
</g>
</svg>
