<svg width="41" height="33" viewBox="0 0 41 33" fill="none" xmlns="http://www.w3.org/2000/svg">
<g id="Group 1000004867">
<g id="Group 1000004859">
<rect id="Rectangle 40266" x="19.4961" y="2.64062" width="2.16688" height="3.10008" fill="#B2B4B5"/>
<rect id="Rectangle 40267" x="16.7871" y="0.599609" width="7.58408" height="2.7086" rx="1.3543" fill="#B2B4B5"/>
</g>
<path id="Rectangle 40263" d="M3.2998 25.3281H37.7281V22.2785C37.7281 12.7714 30.0211 5.06441 20.514 5.06441C11.0068 5.06441 3.2998 12.7714 3.2998 22.2785V25.3281Z" fill="#EFEFEF"/>
<path id="Rectangle 40264" d="M6.2998 25.3281H34.8867V23.2578C34.8867 15.3638 28.4873 8.96437 20.5932 8.96437C12.6992 8.96437 6.2998 15.3638 6.2998 23.2578V25.3281Z" fill="#B2B4B5"/>
<path id="Rectangle 40028" d="M3.2998 27.1797H37.7281V29.3466C37.7281 31.1417 36.2729 32.5969 34.4778 32.5969H6.55012C4.75502 32.5969 3.2998 31.1417 3.2998 29.3466V27.1797Z" fill="#EFEFEF"/>
<rect id="Rectangle 40262" x="0.716797" y="23.252" width="40" height="4.33376" rx="0.54172" fill="#D4D4D6"/>
<g id="Group 1000004858">
<g id="Group 1000004855">
<path id="Rectangle 40265" d="M4.42236 21.5556C4.42236 20.3588 5.39251 19.3887 6.58924 19.3887H12.0107C13.2074 19.3887 14.1776 20.3588 14.1776 21.5556V23.2512H4.42236V21.5556Z" fill="#FE9738"/>
<path id="Vector 364" d="M5.944 23.2515C5.7131 21.5561 6.51262 19.9725 6.94125 19.3927C5.09328 19.1144 4.49136 20.8793 4.42139 21.7966V23.2515H5.944Z" fill="#E28835"/>
</g>
<g id="Group 1000004857">
<path id="Rectangle 40265_2" d="M24.501 21.5536C24.501 20.3569 25.4711 19.3867 26.6679 19.3867H33.6726C34.8693 19.3867 35.8394 20.3569 35.8394 21.5536V23.2493H24.501V21.5536Z" fill="#FE9738"/>
<path id="Vector 364_2" d="M26.2698 23.2497C26.0014 21.5543 26.7971 19.9428 27.2953 19.363C24.695 19.1682 24.5813 20.8775 24.5 21.7948V23.2497H26.2698Z" fill="#E28835"/>
</g>
<g id="Group 1000004856">
<path id="Rectangle 40265_3" d="M13.1221 21.5536C13.1221 20.3569 14.0922 19.3867 15.289 19.3867H22.7092C23.9059 19.3867 24.8761 20.3569 24.8761 21.5536V23.2493H13.1221V21.5536Z" fill="#FE9738"/>
<path id="Vector 364_3" d="M14.9559 23.2509C14.6776 21.5882 15.1915 19.6126 16.7875 19.4132C13.2304 18.9594 13.2054 20.7817 13.1211 21.6813L13.1211 23.2509H14.9559Z" fill="#E28835"/>
</g>
</g>
</g>
</svg>
