<svg width="41" height="35" viewBox="0 0 41 35" fill="none" xmlns="http://www.w3.org/2000/svg">
<g id="Group 1000004900">
<g id="Group 1000004874">
<path id="Rectangle 40287" d="M2.81934 23.0493C2.81934 22.0178 3.65551 21.1816 4.68699 21.1816H7.97313C8.231 21.1816 8.44005 21.3907 8.44005 21.6486V34.3068C8.44005 34.5646 8.231 34.7737 7.97313 34.7737H4.68699C3.65551 34.7737 2.81934 33.9375 2.81934 32.906V23.0493Z" fill="#969695"/>
<path id="Rectangle 40290" d="M38.6143 32.9077C38.6143 33.9392 37.7781 34.7754 36.7466 34.7754L33.4605 34.7754C33.2026 34.7754 32.9935 34.5663 32.9935 34.3085L32.9935 21.6503C32.9935 21.3924 33.2026 21.1834 33.4605 21.1834L36.7466 21.1834C37.7781 21.1834 38.6143 22.0195 38.6143 23.051L38.6143 32.9077Z" fill="#969695"/>
<path id="Rectangle 40288" d="M0.716797 24.1174C0.716797 23.6017 1.13489 23.1836 1.65062 23.1836H2.81931V32.7742H1.65062C1.13489 32.7742 0.716797 32.3561 0.716797 31.8404V24.1174Z" fill="#838383"/>
<path id="Rectangle 40291" d="M40.7168 31.8396C40.7168 32.3553 40.2987 32.7734 39.783 32.7734L38.6143 32.7734L38.6143 23.1829L39.783 23.1829C40.2987 23.1829 40.7168 23.6009 40.7168 24.1167L40.7168 31.8396Z" fill="#838383"/>
<rect id="Rectangle 40293" x="4.69922" y="19.6992" width="1.86123" height="1.48271" fill="#D9D9D9"/>
<rect id="Rectangle 40295" x="34.873" y="19.6992" width="1.86123" height="1.48271" fill="#D9D9D9"/>
<path id="Vector 366" d="M7.54509 19.6994H3.61963C3.61963 4.22014 15.1246 0.716285 20.877 0.899268C35.9073 1.64887 38.3566 14.1646 37.616 19.6994H33.6905C34.1645 8.00757 25.3457 4.71862 20.877 4.53563C9.26349 5.08454 7.1501 14.8735 7.54509 19.6994Z" fill="#969695"/>
</g>
</g>
</svg>
