<svg width="46" height="33" viewBox="0 0 46 33" fill="none" xmlns="http://www.w3.org/2000/svg">
<g id="Group 1000004899">
<rect id="Rectangle 40165" x="35.4395" y="32.9062" width="5.20638" height="9.93695" rx="1.90192" transform="rotate(-90 35.4395 32.9062)" fill="black"/>
<g id="Group 1000004895">
<path id="Vector 373" d="M34.855 23.6211H37.1342C37.4235 23.6211 37.6581 23.8557 37.6581 24.145V25.9782C37.6581 26.2675 37.8927 26.5021 38.182 26.5021H39.2155" stroke="black" stroke-width="0.8" stroke-linecap="round"/>
<rect id="Rectangle 40307" x="30.1436" y="22.2285" width="5.2955" height="9.37314" rx="0.52392" fill="#3CA89C"/>
<rect id="Rectangle 40308" x="28.8203" y="30.916" width="7.94325" height="1.76517" rx="0.52392" fill="#6E6E6E"/>
</g>
<g id="Group 1000005099">
<g id="Group 518090">
<rect id="Rectangle 40164" x="6.01123" y="25.8066" width="5.20638" height="6.00736" rx="1.90192" transform="rotate(-5.58026 6.01123 25.8066)" fill="black"/>
</g>
<g id="Group 1000004894">
<path id="Rectangle 40169" d="M4.80744 10.0061C5.10282 9.96173 5.37317 10.1659 5.41127 10.4622L5.78291 13.3521C5.82101 13.6484 5.61243 13.9245 5.31704 13.9689L4.08351 14.1541C2.99243 14.3179 1.99387 13.5636 1.85314 12.4693C1.71242 11.375 2.48283 10.3551 3.5739 10.1913L4.80744 10.0061Z" fill="#95DAFC"/>
<g id="Group 1000004893">
<path id="Rectangle 40168" d="M30.0964 10.2459C29.801 10.2902 29.5306 10.086 29.4925 9.78975L29.1209 6.89982C29.0828 6.60356 29.2914 6.32745 29.5868 6.2831L30.8203 6.0979C31.9114 5.93408 32.9099 6.68838 33.0507 7.78267C33.1914 8.87696 32.421 9.89686 31.3299 10.0607L30.0964 10.2459Z" fill="#95DAFC"/>
<path id="Rectangle 40166" d="M6.20894 6.44521C6.62971 4.97935 7.86954 3.8862 9.36617 3.6615L23.4833 1.54197C25.0054 1.31344 26.4959 2.02746 27.2591 3.35084L28.2492 5.06767L30.1852 10.23L5.2255 13.9775L5.62952 8.46376L6.20894 6.44521Z" fill="#95DAFC"/>
<path id="Rectangle 40170" d="M7.71676 7.35031C8.07396 6.1849 9.07003 5.32231 10.2659 5.14277L23.0076 3.22975C24.2248 3.047 25.4192 3.60612 26.0481 4.65313L26.9597 6.17076L28.625 10.4649L6.78533 13.7439L7.16751 9.14233L7.71676 7.35031Z" fill="#0C30A2"/>
<g id="Group 518089">
<path id="Rectangle 40163" d="M5.36891 13.509C5.66387 12.9846 6.1833 12.6245 6.77234 12.536L28.8333 9.22382C29.5144 9.12157 30.1897 9.39652 30.5988 9.94265L32.8321 12.9233C33.0254 13.1812 33.1486 13.486 33.1901 13.8085L34.2231 21.8411C34.357 22.8829 33.6236 23.8539 32.5848 24.0099L6.14645 27.9793C5.1077 28.1352 4.15701 27.4171 4.02303 26.3753L3.00826 18.4843C2.9554 18.0733 3.03785 17.6534 3.24308 17.2885L5.36891 13.509Z" fill="#95DAFC"/>
<path id="Rectangle 40167" d="M11.5869 27.1624C11.3617 25.4115 12.5944 23.7797 14.3401 23.5176L23.5759 22.131C25.3216 21.8689 26.9193 23.0758 27.1445 24.8266L11.5869 27.1624Z" fill="#DBF3FF"/>
<path id="Vector 319" d="M6.73212 17.8723L10.5921 18.9784C10.9484 19.0805 11.208 19.3843 11.2557 19.7548L11.26 19.7881C11.327 20.309 10.9602 20.7945 10.4408 20.8724L7.28431 21.3464C6.99576 21.3897 6.7061 21.2977 6.49854 21.097L5.70605 20.3303C5.50085 20.1318 5.39824 19.8485 5.4271 19.5602L5.51182 18.7135C5.5718 18.1142 6.16042 17.7085 6.73212 17.8723Z" fill="#EFEFEF"/>
<path id="Vector 320" d="M29.2723 14.5145L26.0227 16.659C25.7122 16.8638 25.544 17.2284 25.5911 17.5944L25.5965 17.6366C25.6635 18.1575 26.1388 18.5166 26.6582 18.4386L29.6449 17.9902C29.9391 17.946 30.1987 17.7662 30.3462 17.5044L30.8875 16.5438C31.0264 16.2972 31.0514 16.0039 30.9558 15.7419L30.672 14.9642C30.4646 14.3958 29.7836 14.177 29.2723 14.5145Z" fill="#EFEFEF"/>
</g>
</g>
</g>
</g>
</g>
</svg>
