<svg width="41" height="38" viewBox="0 0 41 38" fill="none" xmlns="http://www.w3.org/2000/svg">
<g id="Group 1000004910">
<g id="Group 518184">
<path id="Vector 351" d="M7.33576 8.14053C7.3353 8.14025 7.33485 8.13997 7.3344 8.13969C7.33182 8.11684 7.33238 8.11781 7.33576 8.14053C9.3374 9.37711 14.185 10.876 17.5741 6.98458L18.6404 16.4366L8.40065 17.5918C8.18952 14.61 7.39064 8.50942 7.33576 8.14053Z" fill="#9BC06B"/>
<g id="Group 518135">
<path id="Union" fill-rule="evenodd" clip-rule="evenodd" d="M9.72118 3.03221C9.90209 3.17891 10.1665 3.14968 10.3309 2.98468C10.7438 2.57025 11.2842 2.19867 11.8162 2.11273C12.1295 2.06213 12.4413 2.1093 12.7471 2.31253C13.0605 2.52076 13.3994 2.91444 13.7119 3.61452C13.8161 3.89214 13.8119 4.12815 13.7438 4.33242C13.6729 4.54523 13.5217 4.75449 13.2862 4.94764C12.8894 5.27311 12.2925 5.51878 11.6194 5.63194C11.3897 5.67056 11.2163 5.87223 11.2353 6.10437L11.2692 6.51797C11.2695 6.52168 11.2727 6.52444 11.2764 6.52413C11.2801 6.52383 11.2833 6.52647 11.2837 6.53009L11.5778 9.13769C11.5853 9.20382 11.6449 9.25138 11.7111 9.24392L13.2301 9.07256C13.2963 9.0651 13.3438 9.00545 13.3364 8.93932L13.0642 6.5266C13.0349 6.26656 13.1796 6.0218 13.405 5.88883C13.5539 5.80097 13.6934 5.70456 13.8211 5.59979C14.1477 5.33197 14.4111 4.99782 14.544 4.59919C14.6789 4.19445 14.6686 3.75417 14.4959 3.30302L14.4919 3.29274L14.4875 3.28268C14.1328 2.48409 13.7046 1.93611 13.2139 1.61004C12.7142 1.27795 12.1836 1.19902 11.6817 1.28008C10.8828 1.40913 10.1668 1.93884 9.67308 2.45115C9.51145 2.61885 9.54028 2.88551 9.72118 3.03221Z" fill="black"/>
<path id="Vector 353" d="M1.78219 11.9568C2.34973 11.095 3.95741 9.3183 5.84782 9.10505L20.3544 7.46861C20.3991 7.46356 20.4418 7.46169 20.4867 7.46385C21.4455 7.50997 23.3557 7.96492 23.837 9.46883" stroke="black" stroke-width="1.20492" stroke-linecap="round"/>
</g>
<path id="Vector 350" d="M7.33402 8.13974L3.78949 8.53958C6.51394 15.0127 5.05027 20.8946 3.33084 22.1521L5.01908 37.1179L26.2862 34.7188L24.598 19.7531C19.9382 18.0452 21.0799 9.77989 21.9059 6.49592L17.5738 6.98462C15.5782 17.5798 8.26098 12.8213 7.33402 8.13974Z" fill="#AED67B"/>
</g>
<g id="Group 1000004908">
<rect id="Rectangle 40320" x="16.6294" y="22.6406" width="4.55137" height="2.73082" rx="0.345923" fill="#E51C6E"/>
<rect id="Rectangle 40314" x="7.33154" y="35.5234" width="33.2612" height="1.36541" rx="0.345923" fill="#80AFBA"/>
<path id="Rectangle 40319" d="M7.33154 36.207H40.5927V36.7714C40.5927 36.9624 40.4379 37.1173 40.2468 37.1173H7.67747C7.48642 37.1173 7.33154 36.9624 7.33154 36.7714V36.207Z" fill="#6FA4AD"/>
<path id="Rectangle 40315" d="M10.8517 31.1523C11.5406 29.5751 13.1312 28.5865 14.8504 28.6672L35.3677 29.6299C35.6704 29.6441 35.9688 29.7079 36.2508 29.8188L37.2268 30.2027C38.2854 30.619 38.9814 31.6406 38.9814 32.7781V35.5243H8.94238L10.8517 31.1523Z" fill="#E04805"/>
<g id="Subtract" filter="url(#filter0_i_2222_2567)">
<path fill-rule="evenodd" clip-rule="evenodd" d="M23.0695 22.4503C17.6423 23.193 12.9595 26.6316 10.626 31.5876L36.8632 30.1158C39.1139 29.9896 40.8361 28.0627 40.7099 25.812C40.6338 24.4551 39.8873 23.225 38.7187 22.5311L37.2607 21.6652C36.2353 21.0563 35.0338 20.8128 33.8522 20.9745L23.0695 22.4503ZM23.1543 28.6705C23.8648 26.4588 26.5681 23.0193 33.3334 22.6411C36.1176 22.6607 40.8506 23.5469 37.5096 26.9349C36.612 27.8715 33.9474 29.4605 30.4433 28.3627C30.4099 28.3522 30.3789 28.3368 30.3498 28.3175C29.4453 27.7177 26.9654 27.1178 23.6291 29.0121C23.3714 29.1585 23.0636 28.9527 23.1543 28.6705Z" fill="#FF7900"/>
</g>
<rect id="Rectangle 40317" x="25.9995" y="27.168" width="4.55137" height="1.36541" rx="0.345923" fill="#185B6B"/>
<path id="Rectangle 40318" d="M25.9995 27.8242H30.5509V28.1874C30.5509 28.3785 30.396 28.5334 30.205 28.5334H26.3454C26.1544 28.5334 25.9995 28.3785 25.9995 28.1874V27.8242Z" fill="#0B3F47"/>
</g>
</g>
<defs>
<filter id="filter0_i_2222_2567" x="10.626" y="20.9258" width="30.0903" height="10.6621" filterUnits="userSpaceOnUse" color-interpolation-filters="sRGB">
<feFlood flood-opacity="0" result="BackgroundImageFix"/>
<feBlend mode="normal" in="SourceGraphic" in2="BackgroundImageFix" result="shape"/>
<feColorMatrix in="SourceAlpha" type="matrix" values="0 0 0 0 0 0 0 0 0 0 0 0 0 0 0 0 0 0 127 0" result="hardAlpha"/>
<feOffset dy="0.345923"/>
<feComposite in2="hardAlpha" operator="arithmetic" k2="-1" k3="1"/>
<feColorMatrix type="matrix" values="0 0 0 0 1 0 0 0 0 0.760784 0 0 0 0 0 0 0 0 1 0"/>
<feBlend mode="normal" in2="shape" result="effect1_innerShadow_2222_2567"/>
</filter>
</defs>
</svg>
