<svg width="37" height="40" viewBox="0 0 37 40" fill="none" xmlns="http://www.w3.org/2000/svg">
<g id="Group 1000004886">
<rect id="Rectangle 40298" x="0.716797" y="0.0253906" width="35.5674" height="39.1447" rx="2.01562" fill="#D5D8E0"/>
<path id="Rectangle 40299" d="M0.716797 34.9141H36.2842V37.1551C36.2842 38.2683 35.3818 39.1707 34.2686 39.1707H2.73242C1.61922 39.1707 0.716797 38.2683 0.716797 37.1551V34.9141Z" fill="#6E768F"/>
<path id="Vector 367" d="M8.5413 8.55417H0.716797V2.04101C0.716797 0.927815 1.61922 0.0253906 2.73242 0.0253906H34.2686C35.3818 0.0253906 36.2842 0.927815 36.2842 2.04101V8.55417H28.5297C28.0075 8.55417 27.5079 8.34094 27.1465 7.96384C26.3637 7.14679 25.2812 6.6848 24.1496 6.6848H13.3604C12.1402 6.6848 10.9641 7.14101 10.0631 7.96384C9.64728 8.34361 9.10447 8.55417 8.5413 8.55417Z" fill="#BF9EE0"/>
<circle id="Ellipse 393" cx="30.5669" cy="4.28906" r="2.01562" fill="#6E768F"/>
<path id="Rectangle 40300" d="M0.716797 2.04101C0.716797 0.927813 1.61922 0.0253906 2.73242 0.0253906H6.79835V8.55438H0.716797V2.04101Z" fill="#A07ACA"/>
<rect id="Rectangle 40301" x="0.716797" y="8.55469" width="6.08155" height="26.3591" fill="#A8ACBA"/>
<path id="Rectangle 40302" d="M0.782227 34.9141H6.86378V39.1707H2.79785C1.68465 39.1707 0.782227 38.2683 0.782227 37.1551V34.9141Z" fill="#565E75"/>
<circle id="Ellipse 392" cx="5.83837" cy="4.28906" r="2.01562" fill="#565E75"/>
<g id="Group 1000004881">
<circle id="Ellipse 395" cx="17.9321" cy="20.6484" r="12.0937" fill="#BF9EE0"/>
<circle id="Ellipse 394" cx="17.9321" cy="20.6484" r="9.07029" fill="#C1CFF2"/>
</g>
<g id="Group 1000004884">
<g id="Group 1000004882">
<path id="Vector 369" d="M14.1405 23.3884C13.6435 23.2093 13.287 23.4176 13.0228 23.707C12.8003 23.9509 12.4074 23.929 12.3775 23.6002C12.2983 22.7268 12.8756 22.1353 13.25 21.9178C14.4314 21.4006 15.2518 21.8127 15.5143 22.0835C16.2778 22.8709 15.9631 24.1167 15.7091 24.5133C15.6955 24.5345 15.6785 24.5537 15.6602 24.571C14.9892 25.2077 14.4142 25.3544 14.0084 25.3142C13.724 25.2861 13.7374 24.9592 13.9467 24.7647C14.4627 24.2856 14.4356 23.7932 14.2976 23.5211C14.2655 23.4579 14.2072 23.4125 14.1405 23.3884Z" fill="#3E3E3E"/>
<path id="Vector 370" d="M21.8629 18.3618C22.3437 18.5807 22.7159 18.402 23.0027 18.135C23.2444 17.91 23.6341 17.9637 23.6372 18.2938C23.6453 19.1708 23.0218 19.7135 22.631 19.8998C21.4115 20.3195 20.6273 19.842 20.3876 19.5508C19.6712 18.6804 19.7628 17.6177 20.4143 17.0839C21.1486 16.4824 21.7442 16.379 22.151 16.4531C22.4321 16.5042 22.3922 16.8289 22.1677 17.0057C21.6145 17.4414 21.6016 17.9344 21.7171 18.2168C21.7439 18.2824 21.7984 18.3324 21.8629 18.3618Z" fill="#3E3E3E"/>
<rect id="Rectangle 40303" x="14.6973" y="22.377" width="6.6005" height="1.25216" transform="rotate(-34.0989 14.6973 22.377)" fill="#3E3E3E"/>
</g>
<g id="Group 1000004883">
<rect id="Rectangle 40303_2" x="20.6201" y="22.9688" width="6.6005" height="1.25216" transform="rotate(-149.021 20.6201 22.9688)" fill="#3E3E3E"/>
<rect id="Rectangle 40304" x="22.6436" y="25.0098" width="3.33908" height="2.50431" rx="0.834771" transform="rotate(-149.021 22.6436 25.0098)" fill="#3E3E3E"/>
<rect id="Rectangle 40305" x="14.7949" y="20.1562" width="3.33908" height="2.50431" rx="0.834771" transform="rotate(-149.021 14.7949 20.1562)" fill="#3E3E3E"/>
</g>
</g>
</g>
</svg>
