<svg width="41" height="30" viewBox="0 0 41 30" fill="none" xmlns="http://www.w3.org/2000/svg">
<g id="Group 1000004890">
<g id="Group 1000004887">
<path id="Vector 372" d="M5.26662 1.46484L2.66319 8.29902C2.61609 8.42265 2.63206 8.5596 2.68001 8.68291C2.88569 9.21177 2.78096 9.93666 1.99454 9.97215C1.95441 9.97396 1.91356 9.96856 1.87582 9.95479C1.53884 9.83187 1.368 9.5236 1.41694 9.32786" stroke="#4B5A76" stroke-width="0.43265" stroke-linecap="round"/>
<path id="Vector 371" d="M17.5745 13.9454H10.5201C10.2364 13.9454 10.0318 13.677 10.104 13.4026L10.586 11.5711C10.6153 11.4602 10.5992 11.3421 10.5414 11.243L5.0429 1.81712C4.80972 1.41738 5.28239 0.979978 5.66288 1.2434L17.8199 9.65978C17.9366 9.74059 18.0063 9.87353 18.0063 10.0155V13.5128C18.0063 13.7517 17.8134 13.9454 17.5745 13.9454Z" fill="#4B5A76"/>
</g>
<g id="Group 518306">
<rect id="Rectangle 40218" width="33.6884" height="3.43379" transform="matrix(-1 0 0 1 37.085 20.043)" fill="black"/>
<path id="Subtract" fill-rule="evenodd" clip-rule="evenodd" d="M27.1013 6.43359C27.5479 6.43356 27.9642 6.65953 28.2074 7.03406L32.9848 14.3897C33.0789 14.5345 33.2399 14.6219 33.4126 14.6219C33.4555 14.6219 33.4981 14.6303 33.5378 14.6466L39.1721 16.9611C39.6668 17.1644 39.9897 17.6462 39.9897 18.181V20.6721V25.3906C39.9897 25.5726 39.8421 25.7203 39.66 25.7203H3.71486C3.64019 25.7203 3.56774 25.6949 3.50935 25.6484L0.84111 23.5215C0.76263 23.459 0.716915 23.3641 0.716915 23.2637L0.716919 19.1154C0.716919 19.0323 0.748302 18.9522 0.804794 18.8913L4.56567 14.8331C4.69045 14.6984 4.86572 14.6219 5.04931 14.6219H18.0218C18.3627 14.6219 18.6474 14.3621 18.6784 14.0226L19.3181 7.03346C19.3492 6.69402 19.6339 6.4342 19.9747 6.43417L27.1013 6.43359ZM35.1597 21.1172L36.205 25.7202H27.6205L28.5088 21.1572C28.6294 20.5377 29.1721 20.0904 29.8033 20.0904H33.8736C34.4894 20.0904 35.0233 20.5166 35.1597 21.1172ZM12.4782 25.7202L11.4329 21.1172C11.2965 20.5166 10.7626 20.0904 10.1468 20.0904H6.07646C5.44527 20.0904 4.90257 20.5377 4.78197 21.1572L3.89374 25.7202H12.4782Z" fill="#DC9351"/>
<path id="Rectangle 40219" d="M27.268 7.78957C27.1448 7.61187 26.9423 7.50586 26.7261 7.50586H21.2923C20.9281 7.50586 20.6329 7.80108 20.6329 8.16526V13.2634C20.6329 13.6359 20.9411 13.9344 21.3133 13.9225L30.0874 13.6425C30.6097 13.6258 30.906 13.0372 30.6083 12.6077L27.268 7.78957Z" fill="#EFEFEF"/>
<path id="Rectangle 40220" d="M23.1597 11.2692C23.1597 11.0871 23.0121 10.9395 22.83 10.9395H21.7725C21.5904 10.9395 21.4428 11.0871 21.4428 11.2692V13.944H23.1597V11.2692Z" fill="#5E5E5F"/>
<path id="Rectangle 40221" d="M32.2866 13.3502C32.2866 12.639 31.7101 12.0625 30.9989 12.0625H30.556C30.374 12.0625 30.2263 12.2101 30.2263 12.3922V14.3081C30.2263 14.4902 30.374 14.6378 30.556 14.6378H30.9989C31.7101 14.6378 32.2866 14.0613 32.2866 13.3502Z" fill="#A06D3E"/>
<g id="Group 518303">
<circle id="Ellipse 329" cx="3.64841" cy="3.64841" r="3.64841" transform="matrix(-1 0 0 1 35.561 21.7598)" fill="#5E5E5F"/>
<circle id="Ellipse 330" cx="1.8242" cy="1.8242" r="1.8242" transform="matrix(-1 0 0 1 33.7368 23.584)" fill="#D1D7D7"/>
</g>
<g id="Group 518304">
<circle id="Ellipse 329_2" cx="3.64841" cy="3.64841" r="3.64841" transform="matrix(-1 0 0 1 11.8345 21.7598)" fill="#5E5E5F"/>
<circle id="Ellipse 330_2" cx="1.8242" cy="1.8242" r="1.8242" transform="matrix(-1 0 0 1 10.0103 23.584)" fill="#D1D7D7"/>
</g>
<rect id="Rectangle 40297" width="2.8499" height="2.34313" rx="0.329698" transform="matrix(-1 0 0 1 40.7168 21.9043)" fill="#909090"/>
<path id="Rectangle 40298" d="M39.9487 18.0234H38.7643C38.5822 18.0234 38.4346 18.171 38.4346 18.3531V19.4106C38.4346 19.5927 38.5822 19.7403 38.7643 19.7403H39.9487V18.0234Z" fill="#EBBDA6"/>
</g>
</g>
</svg>
