<svg width="41" height="46" viewBox="0 0 41 46" fill="none" xmlns="http://www.w3.org/2000/svg">
<g id="Group 1000004921">
<path id="Vector 383" d="M8.5708 5.57812L12.4627 7.96359C12.6655 8.0879 12.8114 8.28693 12.8688 8.51777L20.1618 37.8198C20.2831 38.3071 20.7772 38.6031 21.264 38.4801L40.3226 33.6649" stroke="black" stroke-width="1.8138"/>
<path id="Rectangle 40327" d="M1.62386 1.6997C2.12473 0.832176 3.23403 0.534939 4.10156 1.03581L10.3847 4.66341L8.57095 7.805L2.28776 4.1774C1.42023 3.67653 1.12299 2.56723 1.62386 1.6997Z" fill="#BD3C42"/>
<rect id="Rectangle 40328" x="10.4072" y="3.75" width="0.9069" height="5.4414" rx="0.45345" transform="rotate(28.9025 10.4072 3.75)" fill="#BD3C42"/>
<g id="Group 1000004919">
<g id="Group 1000004914">
<rect id="Rectangle 40329" x="17.4951" y="22.2734" width="20.0421" height="15.6042" transform="rotate(-14 17.4951 22.2734)" fill="#EA9E45"/>
<rect id="Rectangle 40330" x="17.4951" y="22.2734" width="6.88057" height="15.6042" transform="rotate(-14 17.4951 22.2734)" fill="#DE8801"/>
<rect id="Rectangle 40331" x="31.835" y="22.9766" width="3.72217" height="4.86743" transform="rotate(-14 31.835 22.9766)" fill="#3AC383"/>
</g>
<g id="Group 1000004915">
<rect id="Rectangle 40329_2" x="14.8623" y="11.7129" width="13.7465" height="10.7027" transform="rotate(-14 14.8623 11.7129)" fill="#EA9E45"/>
<rect id="Rectangle 40330_2" x="14.8623" y="11.7129" width="4.71925" height="10.7027" transform="rotate(-14 14.8623 11.7129)" fill="#DE8801"/>
<rect id="Rectangle 40331_2" x="24.6973" y="12.1953" width="2.55297" height="3.33848" transform="rotate(-14 24.6973 12.1953)" fill="#F26674"/>
</g>
</g>
<g id="Group 1000004917">
<circle id="Ellipse 403" cx="20.3942" cy="38.7018" r="6.3483" fill="black"/>
<circle id="Ellipse 404" cx="20.3941" cy="38.7022" r="4.63192" fill="#5C5C5C"/>
<circle id="Ellipse 405" cx="20.394" cy="38.7021" r="1.36035" fill="black"/>
</g>
</g>
</svg>
