<svg width="37" height="43" viewBox="0 0 37 43" fill="none" xmlns="http://www.w3.org/2000/svg">
<g id="Group 1000004873">
<g id="Group 1000004871">
<rect id="Rectangle 40283" x="7.85449" y="0.232422" width="5.35479" height="8.31404" fill="#CE6010"/>
<rect id="Rectangle 40281" x="4.27637" y="8.54688" width="12.5111" height="15.3342" fill="#CCC9D6"/>
<path id="Rectangle 40282" d="M7.76217 3.27148H13.3204L16.7874 8.54688H4.27637L7.76217 3.27148Z" fill="#D9D6E3"/>
</g>
<rect id="Rectangle 40271" x="0.716797" y="10.5371" width="35.4425" height="4.01243" fill="#1A9DC8"/>
<path id="Rectangle 40272" d="M2.85547 14.5508H34.0204L29.641 39.666H6.21646L2.85547 14.5508Z" fill="#188DB4"/>
<path id="Subtract" fill-rule="evenodd" clip-rule="evenodd" d="M3.42285 17.4297L6.21615 39.6667H29.6407L33.2804 17.4297H3.42285Z" fill="#1A9DC8"/>
<g id="Group 1000004868" filter="url(#filter0_i_2196_2926)">
<rect id="Rectangle 40275" x="13.0923" y="10.5391" width="12.4308" height="9.91943" fill="#F7C427"/>
<g id="Group 1000004867">
<path id="Rectangle 40276" d="M13.0923 19.8672H15.8267V25.8518C15.8267 26.6069 15.2146 27.219 14.4595 27.219C13.7044 27.219 13.0923 26.6069 13.0923 25.8518V19.8672Z" fill="#F7C427"/>
<path id="Rectangle 40277" d="M16.3247 19.8672H19.0591V25.8518C19.0591 26.6069 18.447 27.219 17.6919 27.219C16.9368 27.219 16.3247 26.6069 16.3247 25.8518V19.8672Z" fill="#F7C427"/>
<path id="Rectangle 40278" d="M19.5571 19.8672H22.2915V25.8518C22.2915 26.6069 21.6794 27.219 20.9243 27.219C20.1692 27.219 19.5571 26.6069 19.5571 25.8518V19.8672Z" fill="#F7C427"/>
<path id="Rectangle 40279" d="M22.7891 19.8672H25.5235V25.8518C25.5235 26.6069 24.9113 27.219 24.1563 27.219C23.4012 27.219 22.7891 26.6069 22.7891 25.8518V19.8672Z" fill="#F7C427"/>
<path id="Rectangle 40280" d="M22.7891 16.1562L24.8978 14.4155L29.4231 19.8974C29.9038 20.4797 29.8214 21.3415 29.2391 21.8222C28.6568 22.3028 27.7951 22.2205 27.3144 21.6382L22.7891 16.1562Z" fill="#F7C427"/>
</g>
</g>
<g id="Group 1000004870">
<g id="Group 1000004869">
<path id="Union" fill-rule="evenodd" clip-rule="evenodd" d="M26.6477 40.925C25.9988 40.5606 25.0762 40.6745 24.5358 41.1862C23.8689 41.8176 23.0154 42.245 22.0525 42.3639C19.553 42.6723 17.2629 40.7842 16.9374 38.1467C16.612 35.5092 18.3744 33.1211 20.8739 32.8126C21.8517 32.692 22.7974 32.9074 23.606 33.3724C24.2512 33.7434 25.1748 33.6376 25.7204 33.1315C26.3845 32.5154 27.2299 32.0984 28.182 31.9809C30.6815 31.6725 32.9697 33.5451 33.2928 36.1635C33.6159 38.7819 31.8516 41.1546 29.3521 41.4631C28.3852 41.5824 27.4499 41.3753 26.6477 40.925Z" fill="#C68601"/>
<path id="Union_2" fill-rule="evenodd" clip-rule="evenodd" d="M26.4788 39.5046C25.877 39.2067 25.0812 39.3048 24.5699 39.7401C23.8782 40.3288 22.9819 40.7372 21.9722 40.8618C19.4727 41.1702 17.2246 39.6227 16.951 37.4054C16.6774 35.1881 18.4818 33.1406 20.9814 32.8321C21.9913 32.7075 22.9601 32.8859 23.7743 33.289C24.376 33.5869 25.1719 33.4887 25.6832 33.0535C26.3749 32.4648 27.2712 32.0564 28.2809 31.9318C30.7804 31.6234 33.0285 33.1708 33.3021 35.3881C33.5757 37.6055 31.7713 39.653 29.2717 39.9614C28.2618 40.086 27.293 39.9077 26.4788 39.5046Z" fill="#E5B415"/>
</g>
<circle id="Ellipse 379" cx="27.3303" cy="35.742" r="0.656014" fill="#C68601"/>
<circle id="Ellipse 390" cx="19.3098" cy="38.24" r="0.656014" fill="#C68601"/>
<circle id="Ellipse 383" cx="18.4705" cy="36.0682" r="0.472466" fill="#C68601"/>
<circle id="Ellipse 388" cx="25.1263" cy="37.7693" r="0.472466" fill="#C68601"/>
<circle id="Ellipse 384" cx="20.7189" cy="41.4221" r="0.275583" fill="#E5B415"/>
<circle id="Ellipse 386" cx="28.7821" cy="40.7464" r="0.535479" fill="#E5B415"/>
<circle id="Ellipse 380" cx="21.7133" cy="36.3993" r="0.325131" fill="#C68601"/>
<circle id="Ellipse 389" cx="29.9682" cy="33.6689" r="0.325131" fill="#C68601"/>
<circle id="Ellipse 381" cx="30.493" cy="36.9241" r="0.84989" fill="#C68601"/>
<circle id="Ellipse 382" cx="22.0384" cy="39.0901" r="0.84989" fill="#C68601"/>
<circle id="Ellipse 387" cx="23.5029" cy="35.2221" r="0.386183" fill="#C68601"/>
</g>
</g>
<defs>
<filter id="filter0_i_2196_2926" x="13.0923" y="10.5391" width="16.6436" height="16.6797" filterUnits="userSpaceOnUse" color-interpolation-filters="sRGB">
<feFlood flood-opacity="0" result="BackgroundImageFix"/>
<feBlend mode="normal" in="SourceGraphic" in2="BackgroundImageFix" result="shape"/>
<feColorMatrix in="SourceAlpha" type="matrix" values="0 0 0 0 0 0 0 0 0 0 0 0 0 0 0 0 0 0 127 0" result="hardAlpha"/>
<feOffset dx="-0.214193"/>
<feComposite in2="hardAlpha" operator="arithmetic" k2="-1" k3="1"/>
<feColorMatrix type="matrix" values="0 0 0 0 0.968627 0 0 0 0 0.607843 0 0 0 0 0 0 0 0 1 0"/>
<feBlend mode="normal" in2="shape" result="effect1_innerShadow_2196_2926"/>
</filter>
</defs>
</svg>
