<svg width="35" height="41" viewBox="0 0 35 41" fill="none" xmlns="http://www.w3.org/2000/svg">
<g id="Group 1000005344">
<rect id="Rectangle 40406" x="6.51123" y="3.61328" width="28.3143" height="32.3592" rx="2" fill="#13295C"/>
<rect id="Rectangle 40407" x="8.93799" y="6.03906" width="23.4604" height="27.5053" rx="1" fill="white"/>
<path id="Subtract" fill-rule="evenodd" clip-rule="evenodd" d="M25.9961 2.23906H22.672C22.489 1.29924 21.6613 0.589844 20.6679 0.589844C19.6746 0.589844 18.8469 1.29924 18.6639 2.23906H15.3398C14.7876 2.23906 14.3398 2.68678 14.3398 3.23906V6.6182C14.3398 7.17049 14.7876 7.6182 15.3398 7.6182H25.9961C26.5484 7.6182 26.9961 7.17049 26.9961 6.6182V3.23906C26.9961 2.68678 26.5484 2.23906 25.9961 2.23906ZM20.668 3.61247C21.3446 3.61247 21.8931 3.06398 21.8931 2.38739C21.8931 1.7108 21.3446 1.16232 20.668 1.16232C19.9914 1.16232 19.4429 1.7108 19.4429 2.38739C19.4429 3.06398 19.9914 3.61247 20.668 3.61247Z" fill="#79BEC4"/>
<g id="Group 1000005340">
<ellipse id="Ellipse 443" cx="28.2084" cy="14.1298" rx="2.28992" ry="2.28992" fill="#F05D7C"/>
<path id="+" d="M27.8376 15.3544V12.9043H28.5793V15.3544H27.8376ZM26.9834 14.5002V13.7585H29.4335V14.5002H26.9834Z" fill="white"/>
</g>
<rect id="Rectangle 40409" x="10.8677" y="11.8398" width="13.0675" height="0.983558" rx="0.491779" fill="#D9D9D9"/>
<rect id="Rectangle 40411" x="10.8677" y="15.2734" width="13.0675" height="0.983558" rx="0.491779" fill="#D9D9D9"/>
<rect id="Rectangle 40410" x="10.8677" y="18.707" width="19.6012" height="0.983558" rx="0.491779" fill="#D9D9D9"/>
<rect id="Rectangle 40412" x="10.8677" y="22.1406" width="19.6012" height="0.983558" rx="0.491779" fill="#D9D9D9"/>
<rect id="Rectangle 40413" x="10.8677" y="25.5762" width="19.6012" height="0.983558" rx="0.491779" fill="#D9D9D9"/>
<rect id="Rectangle 40414" x="10.8677" y="29.0098" width="19.6012" height="0.983558" rx="0.491779" fill="#D9D9D9"/>
<path id="Vector" d="M17.1592 31.051C17.1592 36.1893 9.54064 40.3483 9.2162 40.5201C9.13068 40.5661 9.0351 40.5902 8.938 40.5902C8.8409 40.5902 8.74531 40.5661 8.6598 40.5201C8.33535 40.3483 0.716797 36.1893 0.716797 31.051C0.718157 29.8444 1.19807 28.6877 2.05126 27.8345C2.90445 26.9813 4.06123 26.5014 5.26782 26.5C6.29186 26.5 7.22981 26.7975 7.98568 27.3303C8.53023 27.7141 9.34576 27.7141 9.89032 27.3303C10.6462 26.7975 11.5841 26.5 12.6082 26.5C13.8148 26.5014 14.9715 26.9813 15.8247 27.8345C16.6779 28.6877 17.1578 29.8444 17.1592 31.051Z" fill="#F05D7C"/>
</g>
</svg>
