<svg width="41" height="37" viewBox="0 0 41 37" fill="none" xmlns="http://www.w3.org/2000/svg">
<g id="Group 1000004913">
<rect id="Rectangle 40321" x="0.716797" y="0.71875" width="40" height="26.932" rx="0.751378" fill="#51708C"/>
<rect id="Rectangle 40323" x="2.83154" y="2.92578" width="35.7703" height="17.7228" rx="0.375689" fill="#CCE7FF"/>
<path id="Rectangle 40322" d="M0.716797 22.8457H40.7168V26.8985C40.7168 27.3135 40.3804 27.6499 39.9654 27.6499H1.46817C1.0532 27.6499 0.716797 27.3135 0.716797 26.8985V22.8457Z" fill="#E3E3E3"/>
<path id="Rectangle 40324" d="M16.9143 25.248H24.4502L25.364 29.7155L26.8126 34.1829H14.6206L16.0683 30.0615C16.1491 29.8313 16.2094 29.5944 16.2485 29.3535L16.9143 25.248Z" fill="#E3E3E3"/>
<path id="Rectangle 40325" d="M10.0483 36.4696C10.0483 35.2071 11.0718 34.1836 12.3343 34.1836H29.0984C30.3609 34.1836 31.3844 35.2071 31.3844 36.4696H10.0483Z" fill="#51708C"/>
<path id="Rectangle 40326" d="M18.812 25.2473C18.812 24.9317 19.0679 24.6758 19.3835 24.6758H22.0505C22.3661 24.6758 22.622 24.9317 22.622 25.2473C22.622 25.5629 22.3661 25.8188 22.0505 25.8188H19.3835C19.0679 25.8188 18.812 25.5629 18.812 25.2473Z" fill="#51708C"/>
<g id="Group 1000004884">
<g id="Group 1000004882">
<path id="Vector 369" d="M16.6514 14.7277C16.1127 14.5328 15.7279 14.7622 15.4436 15.0772C15.2097 15.3364 14.7939 15.3131 14.7603 14.9656C14.6692 14.0227 15.2918 13.3842 15.6949 13.1501C16.9618 12.5953 17.8415 13.0374 18.1231 13.3277C18.9422 14.1725 18.6041 15.5091 18.3316 15.9339C18.3172 15.9563 18.2993 15.9766 18.28 15.9949C17.5553 16.6826 16.9351 16.8375 16.4993 16.7914C16.1989 16.7596 16.2134 16.4136 16.4357 16.2089C16.9966 15.6924 16.9667 15.1605 16.8175 14.8679C16.7835 14.8011 16.7218 14.7532 16.6514 14.7277Z" fill="#414549"/>
<path id="Vector 370" d="M24.9306 9.33392C25.4517 9.57192 25.8539 9.37455 26.1628 9.08364C26.417 8.84431 26.8295 8.90127 26.8347 9.25034C26.849 10.1975 26.1766 10.7834 25.7558 10.984C24.4481 11.434 23.6071 10.922 23.3501 10.6098C22.5818 9.67632 22.6801 8.53667 23.3787 7.96428C24.1713 7.3149 24.8133 7.20692 25.2497 7.28936C25.5466 7.34544 25.504 7.68912 25.2659 7.87509C24.6649 8.34441 24.6514 8.87695 24.7764 9.1807C24.8049 9.25001 24.8624 9.30279 24.9306 9.33392Z" fill="#414549"/>
<rect id="Rectangle 40303" x="17.2471" y="13.6406" width="7.07826" height="1.34279" transform="rotate(-34.0989 17.2471 13.6406)" fill="#414549"/>
</g>
<g id="Group 1000004883">
<rect id="Rectangle 40303_2" x="23.5991" y="14.2773" width="7.07827" height="1.34279" transform="rotate(-149.021 23.5991 14.2773)" fill="#414549"/>
<rect id="Rectangle 40304" x="25.7686" y="16.4648" width="3.58078" height="2.68558" rx="0.882715" transform="rotate(-149.021 25.7686 16.4648)" fill="#414549"/>
<rect id="Rectangle 40305" x="17.3521" y="11.2598" width="3.58078" height="2.68558" rx="0.882715" transform="rotate(-149.021 17.3521 11.2598)" fill="#414549"/>
</g>
</g>
</g>
</svg>
