<svg width="41" height="35" viewBox="0 0 41 35" fill="none" xmlns="http://www.w3.org/2000/svg">
<g id="Group 1000004928">
<g id="Group 1000004922">
<path id="Subtract" fill-rule="evenodd" clip-rule="evenodd" d="M9.25191 14.7129C6.49213 14.7129 4.25488 16.9501 4.25488 19.7099C4.25488 22.4697 6.49213 24.707 9.25191 24.707H35.5863C35.8078 24.707 35.9874 24.5274 35.9874 24.3058V22.1051H34.2259V17.2805H35.9874V15.114C35.9874 14.8925 35.8078 14.7129 35.5863 14.7129H9.25191Z" fill="#FF8086"/>
<path id="Rectangle 40333" d="M7.20557 19.7092C7.20557 18.3769 8.2856 17.2969 9.6179 17.2969H34.2281V22.1215H9.6179C8.2856 22.1215 7.20557 21.0415 7.20557 19.7092Z" fill="#FFD2D6"/>
<path id="Rectangle 40334" d="M8.78662 19.7104C8.78662 19.2663 9.14663 18.9062 9.59073 18.9062H34.2277V20.5145H9.59073C9.14663 20.5145 8.78662 20.1545 8.78662 19.7104Z" fill="#F4B0B5"/>
</g>
<g id="Group 1000004923">
<path id="Subtract_2" fill-rule="evenodd" clip-rule="evenodd" d="M30.9903 34.7578C33.7501 34.7578 35.9873 32.5206 35.9873 29.7608C35.9873 27.001 33.7501 24.7637 30.9903 24.7637L4.65588 24.7637C4.43435 24.7637 4.25477 24.9433 4.25477 25.1649L4.25477 27.3659L6.01639 27.3659L6.01639 32.1906L4.25476 32.1906L4.25476 34.3567C4.25476 34.5782 4.43435 34.7578 4.65587 34.7578L30.9903 34.7578Z" fill="#8A80FF"/>
<path id="Rectangle 40333_2" d="M33.0366 29.7615C33.0366 31.0938 31.9566 32.1738 30.6243 32.1738L6.01406 32.1738L6.01406 27.3492L30.6243 27.3492C31.9566 27.3492 33.0366 28.4292 33.0366 29.7615Z" fill="#D6D2FF"/>
<path id="Rectangle 40334_2" d="M31.4551 29.7603C31.4551 30.2044 31.0951 30.5645 30.651 30.5645L6.01401 30.5645L6.01401 28.9562L30.651 28.9562C31.0951 28.9562 31.4551 29.3162 31.4551 29.7603Z" fill="#B1B0F4"/>
</g>
<g id="Group 1000004926">
<g id="Group 1000004925">
<g id="Group 1000004924">
<rect id="Rectangle 40335" x="9.15088" y="5.00781" width="22.8964" height="9.70578" fill="#505C64"/>
<ellipse id="Ellipse 406" cx="20.5991" cy="14.713" rx="11.4482" ry="2.14466" fill="#505C64"/>
</g>
<path id="Vector 384" d="M20.6978 0.456914L4.13979 4.13494C3.30753 4.31981 3.30003 5.50354 4.12988 5.69893L20.6878 9.59764C20.8096 9.62632 20.9365 9.6261 21.0583 9.59698L37.3594 5.69826C38.1857 5.50065 38.1781 4.32249 37.3494 4.13551L21.0483 0.457498C20.9329 0.431467 20.8132 0.431268 20.6978 0.456914Z" fill="#63717B"/>
</g>
<path id="Vector 385" d="M19.9613 4.39453L7.12305 6.30449V16.2273" stroke="#FAD97F" stroke-width="1.20332" stroke-linecap="round"/>
<rect id="Rectangle 40336" x="5.81445" y="15.6914" width="2.41233" height="4.02055" rx="0.802216" fill="#FAD97F"/>
</g>
</g>
</svg>
