<svg width="44" height="32" viewBox="0 0 44 32" fill="none" xmlns="http://www.w3.org/2000/svg">
<g id="Group 1000004907">
<g id="Group 518091">
<path id="Rectangle 40168" d="M39.3313 12.4336C38.9283 12.4336 38.6016 12.1069 38.6016 11.7039L38.6016 8.90662C38.6016 8.50361 38.9283 8.1769 39.3313 8.1769L41.5812 8.1769C42.7567 8.1769 43.7096 9.1298 43.7096 10.3052C43.7096 11.4807 42.7567 12.4336 41.5812 12.4336L39.3313 12.4336Z" fill="#2B2B2B"/>
<path id="Rectangle 40169" d="M5.52028 8.17578C5.92329 8.17578 6.25 8.50249 6.25 8.9055L6.25 11.7028C6.25 12.1058 5.92329 12.4325 5.52028 12.4325L3.27032 12.4325C2.09486 12.4325 1.14197 11.4796 1.14197 10.3041C1.14197 9.12867 2.09486 8.17578 3.27032 8.17578L5.52028 8.17578Z" fill="#2B2B2B"/>
<path id="Rectangle 40166" d="M8.21434 4.28453C8.91811 3.00891 10.2598 2.2168 11.7167 2.2168H32.9888C34.4767 2.2168 35.8417 3.0427 36.5321 4.36077L37.7503 6.68632L39.4529 12.4329H5.39941L6.88926 6.68632L8.21434 4.28453Z" fill="#2B2B2B"/>
<path id="Rectangle 40170" d="M10.4108 4.9174C10.7684 4.30002 11.4279 3.91992 12.1414 3.91992H31.4207C32.8795 3.91992 34.2226 4.71405 34.9256 5.99225L35.8343 7.64453L37.3242 12.4333H7.52734L8.83096 7.64453L10.4108 4.9174Z" fill="#646464"/>
<g id="Group 518090">
<rect id="Rectangle 40164" x="4.12207" y="24.7773" width="5.5337" height="6.38503" rx="1" fill="black"/>
<rect id="Rectangle 40165" x="34.3447" y="24.7773" width="5.5337" height="6.38503" rx="1" fill="black"/>
</g>
<g id="Group 518089">
<path id="Rectangle 40163" d="M4.54458 12.2449C5.2273 11.5486 6.16145 11.1562 7.13661 11.1562H37.3875C38.551 11.1562 39.6441 11.714 40.3269 12.6561L42.1673 15.1955C42.6163 15.8151 42.858 16.5607 42.858 17.3258V23.7015C42.858 25.7064 41.2327 27.3317 39.2279 27.3317H4.34696C2.34208 27.3317 0.716797 25.7064 0.716797 23.7015V17.6315C0.716797 16.681 1.08953 15.7685 1.75493 15.0899L4.54458 12.2449Z" fill="#2B2B2B"/>
<path id="Rectangle 40167" d="M10.9331 27.3311C10.9331 25.4504 12.4577 23.9258 14.3385 23.9258H29.2369C31.1176 23.9258 32.6422 25.4504 32.6422 27.3311H10.9331Z" fill="#646464"/>
<path id="Vector 319" d="M6.06219 16.8204L11.1169 18.5847C11.5167 18.7242 11.7845 19.1013 11.7845 19.5247C11.7845 20.0746 11.3387 20.5204 10.7888 20.5204H6.1723C5.69647 20.5204 5.23967 20.3335 4.90025 20L4.3945 19.5032C3.96548 19.0817 3.80554 18.4571 3.9792 17.8812C4.24517 16.9993 5.1925 16.5169 6.06219 16.8204Z" fill="#EFEFEF"/>
<path id="Vector 320" d="M37.2366 16.8477L32.4505 18.5789C32.0543 18.7222 31.7903 19.0984 31.7903 19.5198C31.7903 20.0724 32.2383 20.5204 32.7909 20.5204H37.1605C37.6476 20.5204 38.1142 20.3246 38.4555 19.9771L38.9334 19.4906C39.3415 19.075 39.4935 18.4714 39.3307 17.9121C39.0709 17.0192 38.111 16.5313 37.2366 16.8477Z" fill="#EFEFEF"/>
</g>
</g>
<g id="Group 1000004905">
<ellipse id="Ellipse 402" cx="21.3488" cy="1.79129" rx="3.95131" ry="1.75614" fill="#2B2B2B"/>
<g id="TAXI">
<path d="M19.5957 1.41862V1.21875H20.5374V1.41862H20.1864V2.36534H19.9467V1.41862H19.5957Z" fill="#EFDE42"/>
<path d="M20.75 2.36534H20.4902L20.886 1.21875H21.1984L21.5937 2.36534H21.3339L21.0467 1.48076H21.0378L20.75 2.36534ZM20.7338 1.91465H21.3474V2.10389H20.7338V1.91465Z" fill="#EFDE42"/>
<path d="M21.959 1.21875L22.1902 1.60953H22.1992L22.4315 1.21875H22.7053L22.3554 1.79205L22.7131 2.36534H22.4343L22.1992 1.974H22.1902L21.9551 2.36534H21.6774L22.0363 1.79205L21.6841 1.21875H21.959Z" fill="#EFDE42"/>
<path d="M23.1011 1.21875V2.36534H22.8587V1.21875H23.1011Z" fill="#EFDE42"/>
</g>
</g>
</g>
</svg>
