<svg width="41" height="40" viewBox="0 0 41 40" fill="none" xmlns="http://www.w3.org/2000/svg">
<g id="Group 1000004935">
<path id="Union" fill-rule="evenodd" clip-rule="evenodd" d="M16.5178 9.02937L2.32617 25.5469L15.5147 36.8783L29.2458 20.8968C29.2719 20.8678 29.2977 20.8385 29.3233 20.8087C29.3488 20.779 29.3739 20.7491 29.3986 20.7189L29.7063 20.3608L29.6804 20.3385C31.5273 17.5754 30.3877 13.1876 26.9482 10.2324C23.5086 7.27723 18.9993 6.81148 16.5458 9.05344L16.5178 9.02937Z" fill="#EFEFEF"/>
<path id="Ellipse 297" d="M17.2816 30.5064C17.2816 34.8534 13.7577 38.3773 9.41072 38.3773C5.06375 38.3773 1.53984 34.8534 1.53984 30.5064C1.53984 26.1595 5.06375 22.6355 9.41072 22.6355C13.7577 22.6355 17.2816 26.1595 17.2816 30.5064Z" fill="#EFEFEF" stroke="#E7E7E7" stroke-width="1.64608"/>
<path id="Vector 269" d="M8.3588 22.334C14.5248 21.9233 15.6695 27.6664 15.6267 30.4698C15.5446 35.8522 11.5213 36.5328 8.66796 36.4623C3.09774 34.9258 3.40065 30.6066 5.05458 27.7848C6.41008 25.4723 12.1637 25.58 13.159 28.5394C14.1543 31.4988 11.0015 33.5537 8.71609 33.3085C6.43073 33.0633 6.70617 28.6512 8.78348 28.8932C10.4453 29.0868 10.4276 30.2502 10.211 30.8077C9.75317 31.3648 8.75891 32.0976 8.44427 30.5722" stroke="#E7E7E7" stroke-width="1.64608" stroke-linecap="round"/>
<g id="Group 518009">
<path id="Rectangle 40026" d="M24.627 31.3137C24.627 29.9151 25.7608 28.7812 27.1594 28.7812H33.9161C35.3147 28.7812 36.4485 29.9151 36.4485 31.3137V32.9306C36.4485 34.3292 35.3147 35.463 33.9161 35.463H27.1594C25.7608 35.463 24.627 34.3292 24.627 32.9306V31.3137Z" fill="#E591C8"/>
<path id="Rectangle 40027" d="M20.9195 2.88245C20.7056 1.35878 21.8887 -0.00195312 23.4273 -0.00195312H37.6473C39.1859 -0.00195312 40.369 1.35878 40.1551 2.88245L36.7541 27.1146C36.5786 28.3649 35.5089 29.295 34.2463 29.295H26.8283C25.5657 29.295 24.496 28.3649 24.3205 27.1146L20.9195 2.88245Z" fill="#FFA3DF"/>
<path id="Rectangle 40034" d="M21.0302 3.65234H30.8257H40.0412L40.4404 1.4957C40.5844 0.717304 39.9869 -0.000940084 39.1953 -0.000940084H21.9161C21.1336 -0.000940084 20.5385 0.701626 20.6671 1.47342L21.0302 3.65234Z" fill="#E591C8"/>
<path id="Union_2" fill-rule="evenodd" clip-rule="evenodd" d="M24.2791 0.404297C24.167 0.404297 24.0762 0.495165 24.0762 0.607257V3.65166H24.4821V0.607257C24.4821 0.495165 24.3912 0.404297 24.2791 0.404297ZM29.9642 32.878C29.8521 32.878 29.7612 32.9689 29.7612 33.081C29.7612 33.1931 29.8521 33.2839 29.9642 33.2839H35.6471C35.7592 33.2839 35.85 33.1931 35.85 33.081C35.85 32.9689 35.7592 32.878 35.6471 32.878H29.9642ZM27.3233 0.607257C27.3233 0.495165 27.4142 0.404297 27.5263 0.404297C27.6384 0.404297 27.7293 0.495165 27.7293 0.607257V3.65166H27.3233V0.607257ZM30.7745 0.404297C30.6624 0.404297 30.5715 0.495165 30.5715 0.607257V3.65166H30.9774V0.607257C30.9774 0.495165 30.8866 0.404297 30.7745 0.404297ZM33.412 0.607257C33.412 0.495165 33.5029 0.404297 33.615 0.404297C33.7271 0.404297 33.818 0.495165 33.818 0.607257V3.65166H33.412V0.607257ZM36.8622 0.404297C36.7501 0.404297 36.6592 0.495165 36.6592 0.607257V3.65166H37.0651V0.607257C37.0651 0.495165 36.9743 0.404297 36.8622 0.404297Z" fill="#A96F95"/>
<path id="Rectangle 40038" d="M28.7397 8.73438H39.2764L37.4774 21.5839H28.7397V8.73438Z" fill="#E591C8"/>
</g>
<g id="Group 518166">
<path id="Rectangle 40029" d="M18.835 22.901C18.835 21.4283 20.0289 20.2344 21.5016 20.2344H23.296C24.7687 20.2344 25.9626 21.4283 25.9626 22.901V23.359C25.9626 24.8317 24.7687 26.0256 23.296 26.0256H21.5016C20.0289 26.0256 18.835 24.8317 18.835 23.359V22.901Z" fill="#D1A8A0"/>
<path id="Rectangle 40028" d="M19.7271 16.9403C19.7271 16.0733 20.1475 15.2602 20.855 14.7591C22.6251 13.5053 25.0728 14.7711 25.0728 16.9403V23.354C25.0728 24.8302 23.8761 26.0269 22.3999 26.0269C20.9237 26.0269 19.7271 24.8302 19.7271 23.354V16.9403Z" fill="#931140"/>
<path id="Rectangle 40027_2" d="M18.835 23.3483C18.835 21.8755 20.0289 20.6816 21.5016 20.6816H23.296C24.7687 20.6816 25.9626 21.8755 25.9626 23.3483V27.3638H18.835V23.3483Z" fill="#ECE2E0"/>
<path id="Rectangle 40031" d="M18.835 28.2539H25.9626V34.4906C25.9626 36.4589 24.3671 38.0545 22.3988 38.0545C20.4305 38.0545 18.835 36.4589 18.835 34.4906V28.2539Z" fill="#2C2D4C"/>
<path id="Rectangle 40030" d="M21.0625 21.127H22.3989V26.9182H21.0625V21.127Z" fill="#FFFFFD"/>
<path id="Rectangle 40032" d="M18.3901 27.3618C18.3901 26.6237 18.9885 26.0254 19.7266 26.0254H25.0723C25.8104 26.0254 26.4088 26.6237 26.4088 27.3618C26.4088 28.0999 25.8104 28.6983 25.0723 28.6983H19.7266C18.9885 28.6983 18.3901 28.0999 18.3901 27.3618Z" fill="#FFCC3A"/>
</g>
</g>
</svg>
