<svg width="41" height="33" viewBox="0 0 41 33" fill="none" xmlns="http://www.w3.org/2000/svg">
<g id="Group 1000004932">
<path id="Union" fill-rule="evenodd" clip-rule="evenodd" d="M29.1319 3.6582H0.716797V28.0972C0.716797 28.0972 0.716797 28.0972 0.716797 28.0972C0.716797 29.9753 7.07773 31.4978 14.9243 31.4978C22.771 31.4978 29.1319 29.9753 29.1319 28.0972C29.1319 28.0972 29.1319 28.0972 29.1319 28.0972V3.6582Z" fill="#D3DBEF"/>
<ellipse id="Ellipse 407" cx="14.9243" cy="3.65838" rx="14.2075" ry="3.40057" fill="#8491C1"/>
<path id="Intersect" fill-rule="evenodd" clip-rule="evenodd" d="M1.96924 5.0572C4.19698 3.87642 9.15975 3.05469 14.9244 3.05469C20.689 3.05469 25.6518 3.87643 27.8795 5.0572C25.6518 6.23797 20.689 7.05971 14.9244 7.05971C9.15975 7.05971 4.19698 6.23797 1.96924 5.0572Z" fill="#F05757"/>
<path id="Subtract" fill-rule="evenodd" clip-rule="evenodd" d="M29.132 10.6074C29.119 11.5514 24.3393 12.3161 18.4451 12.3161C15.0721 12.3161 12.0641 12.0657 10.1055 11.6746V23.8148V23.815C10.1062 24.8301 14.3651 25.653 19.6188 25.653C24.8724 25.653 29.1313 24.8301 29.132 23.815V23.8148V10.6074Z" fill="#F05757"/>
<g id="Group 1000004933">
<path id="Vector 386" d="M35.3386 12.6249L36.0052 12.3675C36.5204 12.1685 37.0993 12.4249 37.2983 12.9401L39.0955 17.5941C39.2944 18.1093 39.0381 18.6883 38.5229 18.8872L28.3446 22.8177C27.8294 23.0166 27.573 23.5956 27.7719 24.1108L28.6725 26.4429" stroke="#3A4D51" stroke-width="2" stroke-linecap="round"/>
<path id="Rectangle 40340" d="M27.0814 27.2219C26.8825 26.7067 27.1388 26.1278 27.6541 25.9288L29.0817 25.3775C29.5969 25.1786 30.1759 25.4349 30.3748 25.9501L31.9377 29.9974C32.2889 30.9069 31.8364 31.9288 30.9269 32.28C30.0175 32.6312 28.9955 32.1786 28.6443 31.2692L27.0814 27.2219Z" fill="#546F7A"/>
<g id="Group 1000004929">
<rect id="Rectangle 40338" x="14.0303" y="17.0977" width="21.3113" height="7.18659" rx="2" transform="rotate(-21.1146 14.0303 17.0977)" fill="#FFD039"/>
<path id="Rectangle 40339" d="M13.8114 20.2278C13.6125 19.7126 13.8688 19.1336 14.384 18.9347L14.6937 18.8151L15.9557 22.0832L15.6461 22.2028C15.1308 22.4018 14.5519 22.1454 14.353 21.6302L13.8114 20.2278Z" fill="#813A27"/>
</g>
</g>
</g>
</svg>
