<svg width="41" height="37" viewBox="0 0 41 37" fill="none" xmlns="http://www.w3.org/2000/svg">
<g id="Group 1000004878">
<g id="Group 1000004874">
<g id="Group 1000004878_2">
<path id="Rectangle 40287" d="M2.80811 25.0215C2.80811 23.9169 3.70354 23.0215 4.80811 23.0215H7.99876C8.21968 23.0215 8.39877 23.2006 8.39877 23.4215V36.1409C8.39877 36.3618 8.21968 36.5409 7.99876 36.5409H4.80811C3.70354 36.5409 2.80811 35.6454 2.80811 34.5409V25.0215Z" fill="#D54F4F"/>
<path id="Rectangle 40288" d="M0.716797 26.0117C0.716797 25.4594 1.16451 25.0117 1.7168 25.0117H2.80807V34.551H1.7168C1.16451 34.551 0.716797 34.1033 0.716797 33.551V26.0117Z" fill="#D24034"/>
<path id="Rectangle 40289" d="M10.4897 33.4009C10.4897 34.5559 9.55345 35.4922 8.39847 35.4922L8.39848 24.0718C9.55345 24.0718 10.4897 25.0081 10.4897 26.163L10.4897 33.4009Z" fill="#CCCCCC"/>
</g>
<g id="Group 1000004880">
<path id="Rectangle 40287_2" d="M38.4785 34.5703C38.4785 35.6749 37.5831 36.5703 36.4785 36.5703L33.2879 36.5703C33.0669 36.5703 32.8879 36.3912 32.8879 36.1703L32.8879 23.4509C32.8879 23.23 33.0669 23.0509 33.2879 23.0509L36.4785 23.0509C37.5831 23.0509 38.4785 23.9464 38.4785 25.0509L38.4785 34.5703Z" fill="#D54F4F"/>
<path id="Rectangle 40288_2" d="M40.5698 33.5801C40.5698 34.1324 40.1221 34.5801 39.5698 34.5801L38.4786 34.5801L38.4786 25.0408L39.5698 25.0408C40.1221 25.0408 40.5698 25.4885 40.5698 26.0408L40.5698 33.5801Z" fill="#D24034"/>
<path id="Rectangle 40289_2" d="M30.7969 26.1909C30.7969 25.0359 31.7332 24.0996 32.8881 24.0996L32.8881 35.52C31.7332 35.52 30.7969 34.5837 30.7969 33.4288L30.7969 26.1909Z" fill="#CCCCCC"/>
</g>
<rect id="Rectangle 40293" x="4.67773" y="21.5469" width="1.85127" height="1.47478" fill="#D9D9D9"/>
<rect id="Rectangle 40295" x="34.6909" y="21.5469" width="1.85127" height="1.47478" fill="#D9D9D9"/>
<path id="Vector 366" d="M7.50848 21.5467H3.604C3.604 4.3155 15.0474 0.415082 20.7692 0.618775C35.719 1.45322 38.1553 15.3855 37.4186 21.5467H33.5141C33.9856 8.5316 25.2139 4.87041 20.7692 4.6667C9.21769 5.27774 7.1156 16.1747 7.50848 21.5467Z" fill="#D54F4F"/>
</g>
<g id="Group 1000004875">
<path id="Rectangle 40296" d="M14.3476 13.2128L21.6974 9.72731L22.5935 13.3935L15.2437 16.879L14.3476 13.2128Z" fill="#FFCE62"/>
<path id="Union" fill-rule="evenodd" clip-rule="evenodd" d="M14.7109 13.4634L14.4251 13.5333L16.2872 21.1511C15.9671 20.9717 15.5135 20.916 15.0458 21.0303C14.2566 21.2232 13.7263 21.8275 13.8613 22.3799C13.9964 22.9324 14.7456 23.2238 15.5349 23.0309C16.2879 22.8468 16.8053 22.2883 16.7338 21.7575L16.7381 21.7565L14.7109 13.4634Z" fill="#FFCE62"/>
<path id="Union_2" fill-rule="evenodd" clip-rule="evenodd" d="M22.0581 11.2018L21.7723 11.2717L23.6343 18.8892C23.3142 18.7101 22.8609 18.6545 22.3935 18.7687C21.6043 18.9616 21.074 19.5659 21.209 20.1183C21.3441 20.6708 22.0933 20.9623 22.8826 20.7693C23.6357 20.5852 24.1531 20.0266 24.0815 19.4958L24.0852 19.4949L24.0707 19.4354C24.0696 19.4302 24.0683 19.4249 24.0671 19.4197C24.0658 19.4145 24.0644 19.4093 24.0631 19.4041L22.0581 11.2018Z" fill="#FFCE62"/>
</g>
<path id="Union_3" fill-rule="evenodd" clip-rule="evenodd" d="M28.9051 23.8519L28.6361 23.7325L25.4544 30.9008C25.3106 30.5633 24.9857 30.2421 24.5458 30.0468C23.8032 29.7172 23.0141 29.8714 22.7834 30.3912C22.5527 30.9111 22.9676 31.5997 23.7102 31.9293C24.4192 32.2439 25.1704 32.1177 25.4378 31.6533L25.4416 31.655L28.9051 23.8519Z" fill="#FFCE62"/>
</g>
</svg>
