<svg width="32" height="33" viewBox="0 0 32 33" fill="none" xmlns="http://www.w3.org/2000/svg">
<g id="Frame 1000005790">
<g id="Group 1000005879">
<g id="Group 1000005875">
<path id="Vector" d="M30.358 23.4983C30.358 23.4983 22.3436 21.3948 16.3988 27.0279C13.8414 29.4532 12.0326 31.2519 11.5956 31.6888C10.2305 33.0539 6.71786 32.6915 3.30683 29.2804C-0.104209 25.8694 -0.632631 21.7945 0.73246 20.4328C0.9357 20.2295 3.21876 18.2005 5.75248 15.5211C8.45895 12.6555 7.97117 8.65503 8.14393 6.18567C8.35055 3.21837 8.89591 2.04297 8.89591 2.04297L30.358 23.4983Z" fill="#B2DFEC"/>
<path id="Vector_2" d="M30.3613 23.4974C32.7318 21.1268 29.8491 14.401 23.9228 8.47478C17.9964 2.5486 11.2704 -0.333809 8.89995 2.03675C6.52947 4.40731 9.41211 11.1331 15.3385 17.0593C21.2649 22.9855 27.9908 25.8679 30.3613 23.4974Z" fill="#2C3640"/>
<path id="Vector_3" d="M20.6317 15.9171C21.1687 15.38 20.6862 14.0267 19.5538 12.8944C18.4214 11.7621 17.0681 11.2795 16.531 11.8166C15.994 12.3537 16.4766 13.707 17.6089 14.8393C18.7413 15.9716 20.0946 16.4542 20.6317 15.9171Z" fill="#B2DFEC"/>
<path id="Vector_4" d="M10.6805 32.2395C10.6399 32.2531 10.5958 32.2666 10.5552 32.2801C10.5992 32.2666 10.6399 32.2531 10.6805 32.2395ZM9.52882 32.4224C9.36623 32.4224 9.19687 32.419 9.02411 32.4021C9.19687 32.4156 9.36623 32.4224 9.52882 32.4224ZM16.4457 26.9858C16.4288 26.9993 16.4153 27.0129 16.3983 27.0264C16.4153 27.0129 16.4322 26.9993 16.4457 26.9858ZM6.71057 31.7077C9.84723 32.2361 10.8228 31.0573 10.8228 31.0573C11.9575 29.7634 14.2067 27.5142 15.1653 26.5657C13.0787 25.8036 11.1547 24.6621 9.53899 23.0497C7.59466 21.1054 6.04665 18.2837 5.32515 15.9668C2.96419 18.426 0.921632 20.2416 0.728554 20.4347C-0.636538 21.7998 -0.108115 25.8713 3.30292 29.2824C5.30144 31.2809 7.32706 32.226 8.94282 32.3953C8.26874 32.3208 7.52353 32.1142 6.73767 31.7517L6.71057 31.7077Z" fill="#427687"/>
<path id="Vector_5" d="M10.8271 31.0546C10.8271 31.0546 9.84812 32.2368 6.71484 31.705L6.74872 31.749C7.53458 32.1115 8.27979 32.3181 8.95387 32.3926C8.97758 32.396 9.00129 32.396 9.02839 32.3994C9.20114 32.4163 9.37051 32.4231 9.5331 32.4197H9.65504C9.73295 32.4163 9.80747 32.4095 9.87861 32.4062C9.94296 32.3994 10.0073 32.3926 10.0717 32.3824C10.1462 32.3723 10.2207 32.3587 10.2952 32.3452C10.3867 32.3249 10.4748 32.3045 10.5595 32.2808C10.6035 32.2673 10.6441 32.2537 10.6848 32.2402C10.7762 32.2097 10.8677 32.1724 10.9524 32.1318C10.9693 32.125 10.9863 32.1182 10.9998 32.1115C11.1014 32.0606 11.1929 32.0064 11.281 31.9455L11.3521 31.8947C11.4402 31.8303 11.5248 31.7626 11.5994 31.688C11.7349 31.5525 12.0058 31.2816 12.392 30.9022C12.6223 30.6752 12.8967 30.4076 13.205 30.1028C13.3066 30.0012 13.415 29.8961 13.5268 29.7878C14.3058 29.029 15.2814 28.0873 16.4026 27.0271C16.4195 27.0135 16.4331 27 16.4466 26.9864C16.0131 26.8645 15.5896 26.7188 15.1696 26.5664C14.211 27.5149 11.9618 29.764 10.8271 31.0546Z" fill="#427687"/>
<path id="Vector_6" d="M30.9789 24.1139C28.181 26.9118 21.1896 24.1443 14.7232 17.6746C8.25338 11.2048 5.48594 4.21671 8.28387 1.41878C11.0818 -1.37915 17.4534 2.00479 23.9231 8.47458C30.3895 14.9444 33.7769 21.3159 30.9789 24.1139ZM9.51686 2.65515C7.77916 4.39285 9.99447 10.4833 15.9562 16.4416C21.9179 22.3999 28.0049 24.6186 29.7426 22.8809C31.4803 21.1432 29.265 15.0528 23.3033 9.09446C17.3416 3.13615 11.2546 0.917457 9.51686 2.65515Z" fill="#B3D0E0"/>
</g>
</g>
</g>
</svg>
