<svg width="35" height="33" viewBox="0 0 35 33" fill="none" xmlns="http://www.w3.org/2000/svg">
<g id="Frame 1000005791">
<g id="Group 1000005880">
<g id="Group 517802" filter="url(#filter0_d_3419_120)">
<path id="Ellipse 277" d="M31.9998 16.4305C31.9998 24.9138 25.1228 31.7908 16.6395 31.7908C8.15631 31.7908 1.2793 24.9138 1.2793 16.4305C1.2793 7.94732 8.15631 1.07031 16.6395 1.07031C25.1228 1.07031 31.9998 7.94732 31.9998 16.4305Z" fill="#E5931F"/>
<path id="Ellipse 275" d="M30.7205 16.4305C30.7205 24.9138 23.8435 31.7908 15.3602 31.7908C6.87701 31.7908 5.39911e-08 24.9138 3.47817e-08 16.4305C1.55723e-08 7.94732 6.87701 1.07031 15.3602 1.07031C23.8435 1.07031 30.7205 7.94732 30.7205 16.4305Z" fill="#F7BE08"/>
<path id="Ellipse 276" d="M26.8802 16.4303C26.8802 22.7927 21.7224 27.9505 15.36 27.9505C8.9976 27.9505 3.83984 22.7927 3.83984 16.4303C3.83984 10.0679 8.9976 4.91016 15.36 4.91016C21.7224 4.91016 26.8802 10.0679 26.8802 16.4303Z" fill="#FFA422"/>
<path id="Vector" d="M15.0679 15.4318L16.7288 15.6494L16.5569 16.9613L15.0884 16.7688C15.029 17.0749 14.9365 17.3457 14.8088 17.5817C14.7078 17.7601 14.5544 17.9399 14.3488 18.1203C14.5585 18.1025 14.7371 18.1025 14.8829 18.1216C15.0699 18.1461 15.3076 18.2137 15.5974 18.3238C15.9944 18.4706 16.315 18.5607 16.5601 18.5928C16.7599 18.619 16.9363 18.6249 17.0879 18.6105C17.2416 18.5963 17.4453 18.5508 17.6985 18.4741L18.2294 20.2084C17.8453 20.3408 17.5109 20.424 17.227 20.4575C16.9452 20.4907 16.6478 20.486 16.3331 20.4448C15.9895 20.3998 15.6064 20.2884 15.1792 20.1109C14.6207 19.8763 14.2742 19.7375 14.1372 19.6928C14.002 19.6503 13.8545 19.6179 13.6938 19.5969C13.2232 19.5352 12.6818 19.6311 12.0708 19.8862L11.5662 18.2343C12.4079 17.7856 12.8647 17.2871 12.9367 16.7375C12.9406 16.7078 12.9473 16.6249 12.9575 16.4896L11.8144 16.3398L11.9864 15.0279L12.8047 15.1352C12.7292 14.637 12.6855 14.3463 12.6788 14.2671C12.6717 14.148 12.6791 14.0027 12.7015 13.8312C12.7613 13.3755 12.9364 12.9822 13.227 12.6515C13.5155 12.3205 13.8694 12.0991 14.2871 11.9883C14.705 11.8755 15.2485 11.8629 15.9189 11.9508C16.5468 12.0331 17.0345 12.1691 17.382 12.3575C17.7303 12.5453 18.0103 12.8196 18.2195 13.1781C18.4305 13.5381 18.553 13.9552 18.5874 14.4316L16.4482 14.4836C16.3945 14.081 16.3068 13.8072 16.187 13.6623C16.0673 13.5175 15.9203 13.4337 15.7468 13.411C15.5355 13.3833 15.3563 13.4299 15.2079 13.5512C15.0587 13.6724 14.9676 13.8597 14.9342 14.1142C14.9163 14.2506 14.9123 14.3812 14.9222 14.5096C14.9299 14.6397 14.9789 14.9469 15.0679 15.4318Z" fill="#CA7721"/>
</g>
</g>
</g>
<defs>
<filter id="filter0_d_3419_120" x="0" y="1.07031" width="34.3691" height="30.7207" filterUnits="userSpaceOnUse" color-interpolation-filters="sRGB">
<feFlood flood-opacity="0" result="BackgroundImageFix"/>
<feColorMatrix in="SourceAlpha" type="matrix" values="0 0 0 0 0 0 0 0 0 0 0 0 0 0 0 0 0 0 127 0" result="hardAlpha"/>
<feOffset dx="2.36906"/>
<feComposite in2="hardAlpha" operator="out"/>
<feColorMatrix type="matrix" values="0 0 0 0 0 0 0 0 0 0 0 0 0 0 0 0 0 0 0.04 0"/>
<feBlend mode="normal" in2="BackgroundImageFix" result="effect1_dropShadow_3419_120"/>
<feBlend mode="normal" in="SourceGraphic" in2="effect1_dropShadow_3419_120" result="shape"/>
</filter>
</defs>
</svg>
