<svg width="32" height="21" viewBox="0 0 32 21" fill="none" xmlns="http://www.w3.org/2000/svg">
<g id="Group 1000005876">
<g id="Group 517802">
<path id="Path (Stroke)" fill-rule="evenodd" clip-rule="evenodd" d="M17.164 6.67446C17.2246 6.48354 17.1874 6.26111 16.9009 6.02901C16.5959 5.78196 16.091 5.603 15.4747 5.54375C14.8657 5.48522 14.1898 5.54802 13.5761 5.7423C12.9565 5.93845 12.5402 6.22361 12.3312 6.49619C12.1365 6.75007 12.1295 6.96747 12.2536 7.16567C12.3681 7.34855 12.3118 7.59167 12.1279 7.70868C11.9439 7.82569 11.702 7.77229 11.5875 7.58941C11.2579 7.06292 11.3551 6.48637 11.7113 6.02196C12.0531 5.57626 12.6345 5.21877 13.3482 4.99285C14.0677 4.76505 14.8503 4.69295 15.5592 4.7611C16.2607 4.82854 16.933 5.03787 17.3987 5.41515C17.8829 5.80738 18.0884 6.34681 17.9114 6.9043C17.7468 7.42288 17.2805 7.8582 16.6556 8.16822C16.4605 8.26502 16.226 8.18595 16.1318 7.99161C16.0376 7.79727 16.1194 7.56125 16.3145 7.46445C16.8396 7.20394 17.091 6.9043 17.164 6.67446Z" fill="#161616"/>
<path id="Path" d="M15.877 4.84766L15.1683 6.72987L15.877 4.84766Z" fill="white"/>
<path id="Path (Stroke)_2" fill-rule="evenodd" clip-rule="evenodd" d="M16.0178 4.48094C16.2204 4.55537 16.3224 4.78104 16.2456 4.985L15.537 6.86721C15.4602 7.07117 15.2337 7.17618 15.0311 7.10176C14.8285 7.02733 14.7265 6.80165 14.8033 6.59769L15.5119 4.71549C15.5887 4.51153 15.8152 4.40652 16.0178 4.48094Z" fill="#161616"/>
<path id="Path_2" d="M14.8984 4.80469L14.1905 6.68683L14.8984 4.80469Z" fill="white"/>
<path id="Path (Stroke)_3" fill-rule="evenodd" clip-rule="evenodd" d="M15.0372 4.43402C15.2399 4.50838 15.3419 4.73402 15.2652 4.93801L14.5573 6.82015C14.4805 7.02414 14.2541 7.12922 14.0514 7.05486C13.8488 6.9805 13.7468 6.75486 13.8235 6.55088L14.5314 4.66873C14.6081 4.46475 14.8346 4.35967 15.0372 4.43402Z" fill="#161616"/>
</g>
<g id="Group 518229">
<g id="Group 518076">
<path id="Union" fill-rule="evenodd" clip-rule="evenodd" d="M1.57086 7.41406C0.7033 7.41406 0 8.11736 0 8.98493V12.7417C0 12.9232 0.0308025 13.0976 0.0874667 13.2598C0.0296427 13.3791 0 13.5001 0 13.6227C0 15.5276 7.16324 17.0719 15.9995 17.0719C24.8358 17.0719 31.9991 15.5276 31.9991 13.6227C31.9991 13.5001 31.9694 13.3791 31.9116 13.2598C31.9683 13.0976 31.9991 12.9232 31.9991 12.7417V8.98493C31.9991 8.11736 31.2958 7.41406 30.4282 7.41406H1.57086Z" fill="#FFA422"/>
<path id="Ellipse 322" d="M31.9991 8.98408C31.9991 11.5868 24.8358 13.6967 15.9995 13.6967C7.16324 13.6967 0 11.5868 0 8.98408C0 6.38138 7.16324 4.27148 15.9995 4.27148C24.8358 4.27148 31.9991 6.38138 31.9991 8.98408Z" fill="#F7BE08"/>
<path id="Ellipse 323" d="M29.0893 8.98353C29.0893 10.7187 23.2284 12.1253 15.9987 12.1253C8.76904 12.1253 2.9082 10.7187 2.9082 8.98353C2.9082 7.2484 8.76904 5.8418 15.9987 5.8418C23.2284 5.8418 29.0893 7.2484 29.0893 8.98353Z" fill="#FFA422"/>
</g>
<g id="Group 517802_2">
<path id="Path (Stroke)_4" fill-rule="evenodd" clip-rule="evenodd" d="M17.162 9.50845C17.2226 9.31753 17.1855 9.0951 16.899 8.86299C16.594 8.61594 16.089 8.43698 15.4727 8.37774C14.8638 8.3192 14.1878 8.38201 13.5741 8.57629C12.9545 8.77244 12.5383 9.05759 12.3292 9.33018C12.1345 9.58405 12.1276 9.80145 12.2516 9.99965C12.3661 10.1825 12.3098 10.4257 12.1259 10.5427C11.942 10.6597 11.7 10.6063 11.5855 10.4234C11.2559 9.8969 11.3531 9.32036 11.7093 8.85594C12.0512 8.41024 12.6326 8.05276 13.3462 7.82683C14.0658 7.59904 14.8483 7.52693 15.5572 7.59508C16.2588 7.66252 16.931 7.87185 17.3968 8.24913C17.881 8.64136 18.0864 9.18079 17.9095 9.73829C17.7449 10.2569 17.2786 10.6922 16.6537 11.0022C16.4585 11.099 16.224 11.0199 16.1298 10.8256C16.0356 10.6313 16.1174 10.3952 16.3126 10.2984C16.8377 10.0379 17.0891 9.73829 17.162 9.50845Z" fill="#161616"/>
<path id="Path_3" d="M15.877 7.68164L15.1683 9.56385L15.877 7.68164Z" fill="white"/>
<path id="Path (Stroke)_5" fill-rule="evenodd" clip-rule="evenodd" d="M16.0159 7.31493C16.2185 7.38935 16.3205 7.61503 16.2437 7.81899L15.535 9.7012C15.4582 9.90516 15.2317 10.0102 15.0291 9.93574C14.8265 9.86131 14.7245 9.63564 14.8013 9.43168L15.51 7.54947C15.5868 7.34551 15.8133 7.2405 16.0159 7.31493Z" fill="#161616"/>
<path id="Path_4" d="M14.8965 7.63867L14.1885 9.52082L14.8965 7.63867Z" fill="white"/>
<path id="Path (Stroke)_6" fill-rule="evenodd" clip-rule="evenodd" d="M15.0353 7.26801C15.2379 7.34237 15.34 7.56801 15.2632 7.77199L14.5553 9.65414C14.4786 9.85812 14.2521 9.9632 14.0495 9.88884C13.8469 9.81449 13.7448 9.58885 13.8215 9.38486L14.5295 7.50272C14.6062 7.29873 14.8327 7.19365 15.0353 7.26801Z" fill="#161616"/>
</g>
</g>
<g id="Group 518230">
<g id="Group 518076_2">
<path id="Union_2" fill-rule="evenodd" clip-rule="evenodd" d="M1.57086 11.248C0.7033 11.248 0 11.9513 0 12.8189V16.5756C0 16.7572 0.0308025 16.9316 0.0874667 17.0938C0.0296427 17.2131 0 17.3341 0 17.4566C0 19.3616 7.16324 20.9059 15.9995 20.9059C24.8358 20.9059 31.9991 19.3616 31.9991 17.4566C31.9991 17.3341 31.9694 17.2131 31.9116 17.0938C31.9683 16.9316 31.9991 16.7572 31.9991 16.5756V12.8189C31.9991 11.9513 31.2958 11.248 30.4282 11.248H1.57086Z" fill="#E5931F"/>
<path id="Ellipse 322_2" d="M31.9991 12.82C31.9991 15.4227 24.8358 17.5326 15.9995 17.5326C7.16324 17.5326 0 15.4227 0 12.82C0 10.2173 7.16324 8.10742 15.9995 8.10742C24.8358 8.10742 31.9991 10.2173 31.9991 12.82Z" fill="#F7BE08"/>
<path id="Ellipse 323_2" d="M29.0893 12.8195C29.0893 14.5546 23.2284 15.9612 15.9987 15.9612C8.76904 15.9612 2.9082 14.5546 2.9082 12.8195C2.9082 11.0843 8.76904 9.67773 15.9987 9.67773C23.2284 9.67773 29.0893 11.0843 29.0893 12.8195Z" fill="#FFA422"/>
</g>
<g id="Group 517802_3">
<path id="Path (Stroke)_7" fill-rule="evenodd" clip-rule="evenodd" d="M17.162 13.3463C17.2226 13.1554 17.1855 12.933 16.899 12.7009C16.594 12.4538 16.089 12.2749 15.4727 12.2156C14.8638 12.1571 14.1878 12.2199 13.5741 12.4142C12.9545 12.6103 12.5383 12.8955 12.3292 13.1681C12.1345 13.4219 12.1276 13.6393 12.2516 13.8375C12.3661 14.0204 12.3098 14.2635 12.1259 14.3806C11.942 14.4976 11.7 14.4442 11.5855 14.2613C11.2559 13.7348 11.3531 13.1582 11.7093 12.6938C12.0512 12.2481 12.6326 11.8906 13.3462 11.6647C14.0658 11.4369 14.8483 11.3648 15.5572 11.433C16.2588 11.5004 16.931 11.7097 17.3968 12.087C17.881 12.4793 18.0864 13.0187 17.9095 13.5762C17.7449 14.0948 17.2786 14.5301 16.6537 14.8401C16.4585 14.9369 16.224 14.8578 16.1298 14.6635C16.0356 14.4691 16.1174 14.2331 16.3126 14.1363C16.8377 13.8758 17.0891 13.5762 17.162 13.3463Z" fill="#161616"/>
<path id="Path_5" d="M15.877 11.5195L15.1683 13.4017L15.877 11.5195Z" fill="white"/>
<path id="Path (Stroke)_8" fill-rule="evenodd" clip-rule="evenodd" d="M16.0159 11.1528C16.2185 11.2272 16.3205 11.4529 16.2437 11.6569L15.535 13.5391C15.4582 13.743 15.2317 13.8481 15.0291 13.7736C14.8265 13.6992 14.7245 13.4735 14.8013 13.2696L15.51 11.3874C15.5868 11.1834 15.8133 11.0784 16.0159 11.1528Z" fill="#161616"/>
<path id="Path_6" d="M14.8965 11.4746L14.1885 13.3568L14.8965 11.4746Z" fill="white"/>
<path id="Path (Stroke)_9" fill-rule="evenodd" clip-rule="evenodd" d="M15.0353 11.1059C15.2379 11.1803 15.34 11.4059 15.2632 11.6099L14.5553 13.492C14.4786 13.696 14.2521 13.8011 14.0495 13.7267C13.8469 13.6524 13.7448 13.4267 13.8215 13.2228L14.5295 11.3406C14.6062 11.1366 14.8327 11.0315 15.0353 11.1059Z" fill="#161616"/>
</g>
</g>
<g id="Group 518076_3">
<path id="Union_3" fill-rule="evenodd" clip-rule="evenodd" d="M1.57086 7.41406C0.7033 7.41406 0 8.11736 0 8.98493V12.7417C0 12.9232 0.0308025 13.0976 0.0874667 13.2598C0.0296427 13.3791 0 13.5001 0 13.6227C0 15.5276 7.16324 17.0719 15.9995 17.0719C24.8358 17.0719 31.9991 15.5276 31.9991 13.6227C31.9991 13.5001 31.9694 13.3791 31.9116 13.2598C31.9683 13.0976 31.9991 12.9232 31.9991 12.7417V8.98493C31.9991 8.11736 31.2958 7.41406 30.4282 7.41406H1.57086Z" fill="#E5931F"/>
<path id="Ellipse 322_3" d="M31.9991 8.98408C31.9991 11.5868 24.8358 13.6967 15.9995 13.6967C7.16324 13.6967 0 11.5868 0 8.98408C0 6.38138 7.16324 4.27148 15.9995 4.27148C24.8358 4.27148 31.9991 6.38138 31.9991 8.98408Z" fill="#F7BE08"/>
<path id="Ellipse 323_3" d="M29.0893 8.98353C29.0893 10.7187 23.2284 12.1253 15.9987 12.1253C8.76904 12.1253 2.9082 10.7187 2.9082 8.98353C2.9082 7.2484 8.76904 5.8418 15.9987 5.8418C23.2284 5.8418 29.0893 7.2484 29.0893 8.98353Z" fill="#FFA422"/>
</g>
<g id="Group 518231">
<path id="Union_4" fill-rule="evenodd" clip-rule="evenodd" d="M1.57086 3.57227C0.7033 3.57227 0 4.27557 0 5.14313V8.89987C0 9.08143 0.0308025 9.2558 0.0874667 9.41803C0.0296427 9.53727 0 9.65832 0 9.78086C0 11.6858 7.16324 13.2301 15.9995 13.2301C24.8358 13.2301 31.9991 11.6858 31.9991 9.78086C31.9991 9.65832 31.9694 9.53728 31.9116 9.41803C31.9683 9.2558 31.9991 9.08143 31.9991 8.89986V5.14313C31.9991 4.27557 31.2958 3.57227 30.4282 3.57227H1.57086Z" fill="#E5931F"/>
<path id="Ellipse 322_4" d="M31.9991 5.14228C31.9991 7.74497 24.8358 9.85487 15.9995 9.85487C7.16324 9.85487 0 7.74497 0 5.14228C0 2.53959 7.16324 0.429688 15.9995 0.429688C24.8358 0.429688 31.9991 2.53959 31.9991 5.14228Z" fill="#F7BE08"/>
<path id="Ellipse 323_4" d="M29.0893 5.14173C29.0893 6.87686 23.2284 8.28346 15.9987 8.28346C8.76904 8.28346 2.9082 6.87686 2.9082 5.14173C2.9082 3.4066 8.76904 2 15.9987 2C23.2284 2 29.0893 3.4066 29.0893 5.14173Z" fill="#FFA422"/>
</g>
</g>
</svg>
