<svg width="32" height="33" viewBox="0 0 32 33" fill="none" xmlns="http://www.w3.org/2000/svg">
<g id="emojione-v1:eye">
<path id="Vector" d="M31.9229 16.4062C31.9409 16.0987 31.8759 15.7887 31.6924 15.5302C29.5334 12.4847 27.0319 9.76715 23.9214 7.57465C19.7099 4.72465 14.8814 4.05465 10.1964 6.27865C8.11838 7.26415 6.25238 8.74965 4.61638 10.3037C3.02438 11.8137 1.30838 13.6432 0.233384 15.5327C0.0827658 15.8002 0.00275184 16.1017 0.000883955 16.4087H0.00288396C-0.015116 16.7162 0.0498839 17.0262 0.233384 17.2842C2.39338 20.3297 4.89538 23.0472 8.00488 25.2407C12.2164 28.0892 17.0449 28.7607 21.7299 26.5357C23.8079 25.5502 25.6734 24.0647 27.3094 22.5157C28.9014 21.0057 30.6184 19.1757 31.6924 17.2862C31.8399 17.0262 31.9259 16.7162 31.9259 16.4107H31.9229" fill="#7D7D7D"/>
<path id="Vector_2" d="M28.1551 16.4057C28.1691 16.1702 28.1181 15.9327 27.9781 15.7372C26.3281 13.4082 24.4166 11.3322 22.0416 9.65818C18.8236 7.48118 15.1356 6.97068 11.5561 8.66818C9.96912 9.42068 8.54112 10.5567 7.29262 11.7417C6.07662 12.8947 4.76763 14.2937 3.94313 15.7377C3.8278 15.9417 3.76669 16.1718 3.76562 16.4062H3.76863C3.75363 16.6407 3.80462 16.8782 3.94412 17.0752C5.59412 19.4027 7.50612 21.4792 9.88112 23.1527C13.0991 25.3297 16.7871 25.8417 20.3671 24.1432C21.9541 23.3902 23.3821 22.2547 24.6301 21.0702C25.8466 19.9172 27.1586 18.5172 27.9791 17.0747C28.0916 16.8762 28.1566 16.6392 28.1566 16.4057H28.1551Z" fill="white"/>
<path id="Vector_3" d="M19.9609 16.4092C19.9609 17.4698 19.5396 18.4869 18.7896 19.2369C18.0397 19.9868 17.0225 20.4082 15.9619 20.4082C14.9013 20.4082 13.8841 19.9868 13.1342 19.2369C12.3842 18.4869 11.9629 17.4698 11.9629 16.4092C11.9629 15.3486 12.3842 14.3314 13.1342 13.5814C13.8841 12.8315 14.9013 12.4102 15.9619 12.4102C17.0225 12.4102 18.0397 12.8315 18.7896 13.5814C19.5396 14.3314 19.9609 15.3486 19.9609 16.4092Z" fill="#BB702A"/>
<path id="Vector_4" d="M15.9615 9.19727C11.98 9.19727 8.75195 12.4253 8.75195 16.4088C8.75195 20.3908 11.98 23.6188 15.9615 23.6188C19.944 23.6188 23.173 20.3908 23.173 16.4088C23.1735 12.4253 19.9445 9.19727 15.9615 9.19727ZM15.9615 20.4183C14.9184 20.4183 13.9181 20.0039 13.1806 19.2664C12.443 18.5289 12.0287 17.5285 12.0287 16.4855C12.0287 15.4425 12.443 14.4422 13.1806 13.7046C13.9181 12.9671 14.9184 12.5528 15.9615 12.5528C17.0045 12.5528 18.0048 12.9671 18.7423 13.7046C19.4799 14.4422 19.8942 15.4425 19.8942 16.4855C19.8942 17.5285 19.4799 18.5289 18.7423 19.2664C18.0048 20.0039 17.0045 20.4183 15.9615 20.4183Z" fill="#BB702A"/>
<path id="Vector_5" d="M18.5848 16.4838C18.5849 16.8281 18.5171 17.169 18.3854 17.4871C18.2537 17.8052 18.0606 18.0942 17.8172 18.3377C17.5737 18.5811 17.2847 18.7742 16.9666 18.9059C16.6485 19.0376 16.3076 19.1054 15.9633 19.1053C15.2679 19.1053 14.6009 18.8292 14.109 18.3376C13.617 17.8461 13.3404 17.1793 13.3398 16.4838C13.3398 15.7883 13.6161 15.1213 14.108 14.6294C14.5998 14.1376 15.2668 13.8613 15.9623 13.8613C16.6579 13.8613 17.3249 14.1376 17.8167 14.6294C18.3085 15.1213 18.5848 15.7883 18.5848 16.4838Z" fill="#242F35"/>
</g>
</svg>
