<svg width="64" height="64" viewBox="0 0 64 64" fill="none" xmlns="http://www.w3.org/2000/svg">
<g id="Group 1000004715">
<path id="Vector" fill-rule="evenodd" clip-rule="evenodd" d="M7.06738 15.5374C8.03133 15.0301 9.01489 14.5619 9.9946 14.0861C12.0699 13.0769 14.1137 11.9994 16.2128 11.0393C17.1631 10.6049 18.1556 10.328 19.1315 9.9631C20.1679 9.57606 21.1587 9.06485 22.1533 8.58392C24.2443 7.57215 26.3818 6.70035 28.5534 5.87848C29.2183 5.62671 29.8845 5.37921 30.5515 5.13256C31.0636 4.94352 31.6863 4.58037 32.2188 4.51807C33.0635 4.41907 33.6977 5.28021 34.2732 5.79825C37.3789 8.59331 39.5713 12.7373 40.9054 16.6559C41.6334 18.7942 41.9639 21.0021 42.3524 23.2194C42.7503 25.4917 43.1728 27.7158 43.1886 30.0265C43.2043 32.3756 43.4454 34.6915 43.3415 37.0462C43.3027 37.9244 43.4612 39.5037 42.9781 40.2692C42.4879 41.0446 41.2598 41.2614 40.4697 41.5477C36.1483 43.1146 31.8316 44.8011 27.4476 46.1798C22.8863 47.6136 18.3345 49.0713 13.7857 50.5465C13.971 49.2527 14.1878 47.9593 14.333 46.6607C14.4698 45.4377 14.3675 44.1725 14.3569 42.9435C14.3339 40.2428 14.2453 37.557 13.703 34.9031C12.7178 30.0837 11.126 25.3385 8.45687 21.1783C7.83113 20.2037 7.08528 19.3148 6.34198 18.4298C6.07618 18.1132 5.18591 17.3638 5.21743 16.8765C5.2596 16.2377 6.60649 15.7802 7.06738 15.5374ZM58.9194 15.0138C59.9166 15.0595 60.5619 15.2887 60.6313 16.3563C60.7199 17.7172 60.7008 19.0955 60.7493 20.4593C60.843 23.0679 60.9367 25.6773 60.8681 28.288C60.7476 32.8613 60.2612 37.4277 58.8606 41.7982C58.1837 43.9109 57.3736 45.9874 56.4986 48.0254C55.6497 50.0029 54.4497 51.781 53.3874 53.6433C52.8643 54.5595 52.2778 55.3037 51.5566 56.073C51.2154 56.4379 51.0587 56.6325 50.5756 56.6948C50.0862 56.7575 49.4698 56.6312 48.9783 56.5958C46.6644 56.4294 44.3519 56.1998 42.0346 56.088C39.7374 55.9775 37.4304 56.0743 35.1362 55.9677C34.0581 55.9173 33.0426 55.567 31.9828 55.3963C30.9153 55.2243 29.8364 55.1488 28.7629 55.0276C28.2096 54.9653 28.2232 55.0958 28.1393 54.5927C28.0942 54.3248 28.1713 53.9783 28.1858 53.7039C28.2134 53.1752 28.2407 52.646 28.2726 52.1177C28.3016 51.6453 28.2058 50.8162 28.397 50.3694C28.5678 49.9717 28.9329 49.9026 29.3137 49.7985C31.4503 49.2121 33.5145 48.4863 35.5698 47.6576C37.6668 46.8127 39.789 46.0143 41.8621 45.1109C42.7558 44.7217 43.7636 44.3654 44.4405 43.631C44.9955 43.0289 45.3146 42.2548 45.5599 41.4846C46.9107 37.2472 46.4868 32.3641 46.0911 27.9996C45.6843 23.513 45.0428 18.9086 43.3999 14.6908C48.5698 14.6908 53.7542 14.7766 58.9194 15.0138ZM1.21211 18.8928C2.64803 19.4309 3.55277 20.685 4.38936 21.894C5.43084 23.4012 6.41354 24.925 7.22926 26.5696C8.94248 30.0252 10.0734 33.8329 10.7187 37.6304C11.336 41.2554 11.6418 45.2978 10.9317 48.9343C10.7417 49.9069 10.2459 50.6869 9.96862 51.6082C9.78205 52.2274 9.91198 53.1278 10.0798 53.7431C10.3209 54.6256 11.1532 54.3248 11.8467 54.1818C12.8588 53.9731 13.8713 53.7666 14.8821 53.5537C18.6936 52.7493 22.4676 51.35 26.3481 51.0671C26.0176 52.0989 25.8327 53.0352 25.1657 53.9198C24.5416 54.7472 23.7106 55.4641 23.3515 56.4609C23.0525 57.2914 22.995 58.4542 23.2991 59.297C23.619 60.182 24.4011 60.1948 25.2215 60.2942C27.5285 60.5742 29.7985 60.954 32.1242 61.0807C32.6243 61.1076 33.1231 61.1639 33.6168 61.0692C34.0142 60.9928 34.2928 60.8742 34.6945 60.9484C35.2265 61.0461 35.6955 61.3026 36.2535 61.3598C36.7791 61.4135 37.3086 61.3965 37.8355 61.3768C39.783 61.3039 41.6875 61.507 43.6371 61.3171C44.2053 61.2616 45.2724 60.9394 45.8036 61.2642C46.3645 61.6073 45.925 62.2999 46.2044 62.7761C46.5724 63.4021 47.8367 63.0812 48.4479 63.0471C49.3207 62.9993 50.0947 62.8452 50.8768 62.4424C52.4584 61.6286 53.8875 60.5451 55.0504 59.1937C56.2678 57.78 57.1504 56.1285 58.0206 54.4886C58.9288 52.7787 59.8386 51.1089 60.5252 49.2928C61.2268 47.4374 61.9143 45.5235 62.3117 43.5768C62.7087 41.633 62.9601 39.659 63.3349 37.7097C63.726 35.6764 63.7945 33.6042 63.898 31.5414C64.005 29.4026 64.0518 27.301 63.9181 25.1618C63.7869 23.0606 63.5547 20.9995 63.3085 18.9116C63.2455 18.3777 63.2778 17.8251 63.1931 17.2964C63.1356 16.9414 62.9503 16.6043 62.9303 16.2437C62.8894 15.5268 63.5466 15.0659 63.5296 14.3161C63.49 12.5747 61.6379 11.9265 60.2616 11.51C58.4721 10.9685 56.4761 10.642 54.6057 10.7764C50.5803 11.0658 46.4655 11.1033 42.6476 12.573C40.6694 9.18219 38.8263 5.50381 35.5885 3.12566C35.2235 2.85682 34.8274 2.67376 34.591 2.27733C34.389 1.93723 34.3 1.59627 34.0299 1.28988C33.3654 0.536285 32.5463 0.442832 31.6165 0.63998C29.5927 1.06841 27.6593 1.53781 25.7407 2.30421C24.8888 2.64431 23.9849 2.80434 23.1292 3.13676C22.3066 3.45595 21.5203 3.85665 20.7297 4.24625C18.9995 5.0997 17.2104 5.82428 15.4819 6.68456C12.0103 8.41281 8.57828 10.2243 5.38271 12.4313C3.83902 13.4977 2.06916 14.6003 0.760599 15.9539C0.184697 16.5501 -0.0764394 17.302 0.019402 18.1247C0.119077 18.9803 0.557405 18.647 1.21211 18.8928Z" fill="#5C35C0"/>
<path id="Vector_2" fill-rule="evenodd" clip-rule="evenodd" d="M12.0521 17.906C11.2059 17.8656 10.8095 18.3755 10.3279 19.1713C9.45395 20.6157 12.2409 20.8057 13.119 20.746C15.0228 20.6176 16.9207 19.2338 18.7956 18.8579C20.7078 18.4745 22.8302 17.6611 24.6742 17.0217C26.7833 16.0516 29.2107 15.7722 31.1184 14.4451C32.8105 13.269 35.0722 13.7291 35.7407 11.6804C36.0188 10.8282 34.9522 9.62018 34.1696 9.80895C33.3111 10.0166 31.9707 10.194 31.3968 10.8506C30.0507 12.3901 28.2469 12.6451 26.4377 13.5563C22.8399 15.3677 20.2183 15.8926 15.1273 17.3644C14.0864 17.4583 13.0957 17.9559 12.0521 17.906Z" fill="#5C35C0"/>
<path id="Vector_3" fill-rule="evenodd" clip-rule="evenodd" d="M14.726 25.9294C13.8797 25.889 13.4834 26.3989 13.0018 27.1947C12.1278 28.6392 14.9147 28.8291 15.7928 28.7695C17.6966 28.641 19.5945 27.2573 21.4694 26.8813C23.3816 26.4979 25.504 25.6846 27.3481 25.0451C29.4571 24.075 31.8845 23.7956 33.7922 22.4686C35.4843 21.2924 37.746 21.7525 38.4145 19.7039C38.6927 18.8516 37.626 17.6436 36.8435 17.8324C35.985 18.04 34.6445 18.2174 34.0706 18.874C32.7246 20.4135 30.9207 20.6686 29.1115 21.5797C25.5137 23.3912 22.8921 23.916 17.8011 25.3879C16.7602 25.4818 15.7695 25.9793 14.726 25.9294Z" fill="#5C35C0"/>
<path id="Vector_4" fill-rule="evenodd" clip-rule="evenodd" d="M44.5674 21.9182C44.11 21.5828 43.7864 21.9207 43.3568 22.4963C42.5772 23.5412 44.0718 24.699 44.5674 24.952C45.6417 25.5012 46.9723 24.8732 48.082 25.1806C49.2136 25.4942 50.5499 25.4791 51.697 25.5289C53.0583 25.3625 54.452 25.9546 55.7763 25.3831C56.9508 24.8771 58.1004 26.1032 58.8919 24.4205C59.2212 23.7204 58.8839 22.2145 58.4141 22.116C57.8987 22.0085 57.1243 21.7032 56.6727 22.116C55.6136 23.0839 54.5681 22.6883 53.384 22.905C51.0294 23.3356 49.478 22.905 46.3718 22.4926C45.7795 22.2145 45.1314 22.3318 44.5674 21.9182Z" fill="#5C35C0"/>
<path id="Vector_5" fill-rule="evenodd" clip-rule="evenodd" d="M45.2138 30.5139C44.7565 30.1785 44.4329 30.5164 44.0033 31.092C43.2237 32.1369 44.7183 33.2947 45.2138 33.5477C46.2882 34.0969 47.6188 33.4689 48.7284 33.7763C49.8601 34.0899 51.1964 34.0748 52.3435 34.1246C53.7048 33.9582 55.0985 34.5503 56.4228 33.9788C57.5972 33.4728 58.7469 34.6989 59.5384 33.0162C59.8676 32.3162 59.5304 30.8102 59.0606 30.7117C58.5452 30.6042 57.7708 30.2989 57.3192 30.7117C56.2601 31.6796 55.2146 31.284 54.0305 31.5007C51.6758 31.9313 50.1245 31.5007 47.0183 31.0883C46.426 30.8102 45.7779 30.9275 45.2138 30.5139Z" fill="#5C35C0"/>
</g>
</svg>
