<svg width="54" height="63" viewBox="0 0 54 63" fill="none" xmlns="http://www.w3.org/2000/svg">
<g id="Vector">
<path fill-rule="evenodd" clip-rule="evenodd" d="M14.4458 19.1844C13.6864 30.4011 20.2468 37.8502 31.1121 39.8806C35.7068 40.7387 39.5492 40.4976 43.2415 37.498C46.5642 34.7993 49.6812 31.0388 50.0466 26.579C50.3558 22.822 47.9141 17.8903 46.0749 14.7226C43.4959 10.2824 38.5755 8.17206 33.6911 7.30982C29.4374 6.55876 24.2057 5.86623 20.268 8.08813C16.125 10.4257 14.7494 14.7154 14.4458 19.1844ZM36.777 1.65329C47.4194 3.64772 54.8297 15.3499 53.9231 25.8823C52.9054 37.704 42.0385 47.3424 30.1382 45.1553C17.5972 42.8502 11.3667 32.4535 11.742 20.2889C11.9431 13.7645 14.4342 8.52729 19.3102 4.16501C23.9189 0.0429157 30.9573 0.562454 36.777 1.65329Z" fill="#5C35C0"/>
<path fill-rule="evenodd" clip-rule="evenodd" d="M12.4429 59.1243C13.0542 58.9977 13.5347 59.0802 13.3249 59.9577C12.944 61.5505 10.2525 62.4472 9.68738 62.4608C8.46162 62.4912 7.10815 62.6726 6.07088 62.4132C5.01297 62.1489 4.30385 61.3201 3.46733 60.7523C2.67321 59.826 2.01524 58.7315 1.60315 57.3723C1.23697 56.1678 0.872898 54.909 1.80702 52.5962C2.19563 51.6341 2.79054 51.232 3.20179 51.3772C3.65258 51.537 3.80202 52.0844 3.75069 52.7918C3.63067 54.4503 4.48482 55.1253 5.11226 56.0115C6.36033 57.7732 7.76949 59.3198 10.3206 59.362C10.9747 59.3728 11.6891 59.2804 12.4429 59.1243Z" fill="#5C35C0"/>
<path fill-rule="evenodd" clip-rule="evenodd" d="M22.4995 42.0437C22.573 41.2137 23.2312 41.0878 24.2388 41.0225C26.0679 40.9041 25.893 43.6662 25.697 44.477C25.273 46.2354 23.369 47.364 22.6571 48.9717C21.9312 50.6113 20.6679 52.2384 19.6496 53.6855C18.2034 55.2219 17.5264 57.4064 15.6879 58.5726C14.0583 59.6075 14.2773 62.0011 11.7649 61.6224C10.7198 61.4648 9.44747 59.8432 9.78216 59.188C10.15 58.4695 10.5511 57.2747 11.4078 57.0519C13.4165 56.5289 13.9755 54.9292 15.3093 53.6505C17.9612 51.1074 18.9555 48.8591 21.4205 44.7179C21.6803 43.7683 22.409 43.0674 22.4995 42.0437Z" fill="#5C35C0"/>
<path fill-rule="evenodd" clip-rule="evenodd" d="M15.1696 34.8578C15.3553 34.0145 15.9819 33.7948 16.9232 33.5863C18.6317 33.208 18.078 36.0042 17.7817 36.8456C17.14 38.6701 15.2189 40.0727 14.3323 41.7869C13.4283 43.5351 12.029 45.3469 10.8818 46.9434C9.3262 48.6902 8.39006 50.9782 6.52411 52.4092C4.87006 53.6788 4.73298 56.0494 2.46304 56.0259C1.51871 56.0161 0.572025 54.5696 0.974556 53.8647C1.41668 53.0916 1.95724 51.8358 2.7812 51.4906C4.7133 50.6809 5.45735 48.9964 6.8724 47.5241C9.68596 44.5961 10.9247 42.1991 13.7921 37.6941C14.1672 36.7044 14.9406 35.8978 15.1696 34.8578Z" fill="#5C35C0"/>
<path fill-rule="evenodd" clip-rule="evenodd" d="M17.1179 17.8794C17.121 17.4852 17.1245 17.0913 17.1275 16.6973C16.7198 17.2205 16.5533 17.4955 17.1179 17.8794ZM16.3 19.3729C16.5698 19.548 16.8543 18.5196 16.9239 18.3486C16.2941 18.4487 16.5631 18.9859 16.3 19.3729ZM17.9094 16.7274C17.7242 16.4682 17.5389 16.2093 17.3537 15.9502C17.4207 16.7798 17.4596 16.2943 17.1291 16.6956C17.3582 16.8827 17.6511 16.8926 17.9094 16.7274ZM17.1965 22.7076C16.6538 26.7155 18.4577 30.7855 20.99 33.5447C22.4454 35.1298 24.1302 36.0645 26.1149 36.7623C26.8803 37.0314 27.8697 37.1303 28.5723 37.473C29.1132 37.737 29.0776 37.7525 29.3331 38.4436C29.7004 38.1253 29.6675 37.7836 30.1715 37.7164C30.8003 37.6327 30.8738 38.0584 30.9623 38.5651C31.443 38.3329 31.6566 38.1965 32.1744 38.1533C32.158 38.1548 32.5893 38.3103 32.5696 38.3089C32.6566 38.3149 33.2472 38.1856 33.4152 38.1866C34.1049 38.1903 34.8301 38.3717 35.516 38.2533C36.1159 38.1503 36.8507 37.4744 37.1363 38.3401C37.5743 37.2663 39.1084 37.3719 39.9716 37.0676C41.3204 36.5922 42.6382 35.6115 43.6449 34.5538C44.7184 33.4259 45.4185 32.2104 46.2285 30.9273C46.7945 30.0308 48.4914 29.0927 48.2115 27.8414C47.8836 28.1847 47.7887 28.6345 47.3696 28.8962C47.3309 28.301 47.4248 27.6908 47.5374 27.1025C47.5923 26.8142 47.6007 25.9059 47.7305 25.6881C47.9957 25.2422 48.556 25.4404 48.4884 24.7338C47.5563 25.2121 47.5724 23.712 48.2599 23.3916C48.3799 23.7721 48.3349 24.1306 48.3001 24.5272C49.4686 23.4382 47.5717 23.1696 48.4418 22.1112C47.8664 21.7262 47.5743 21.4099 47.6059 20.649C47.6411 19.8024 47.902 19.7211 47.4979 18.9875C47.3588 18.7354 46.8705 18.2553 46.8756 17.9356C46.8851 17.3179 47.4779 17.375 47.2186 16.6869C46.9428 16.9165 46.0971 17.2489 45.9886 16.5606C45.9667 16.4233 46.279 16.4594 46.1784 16.1225C46.0291 15.6238 45.8411 15.1178 45.2979 14.9886C46.1433 14.0714 43.5923 12.9325 43.0341 12.4074C42.4745 11.8814 41.9798 11.4842 41.3002 11.1382C40.6213 10.7925 40.6761 10.558 40.2653 9.86289C39.9511 10.49 39.8634 10.2883 39.3864 10.2272C39.3602 9.99522 39.2628 9.9306 39.0943 10.0337C38.9415 10.0995 38.7883 10.0973 38.6351 10.0276C38.3934 9.94451 38.1386 9.80226 37.8887 9.70678C37.3023 9.48206 36.7237 9.1859 36.1479 8.96673C36.0115 8.8805 35.8963 8.76982 35.8015 8.63406C35.7036 8.72048 35.6053 8.80706 35.5076 8.89383C35.1889 8.81124 35.0005 9.20665 34.8093 8.61241C34.47 9.13066 34.2734 8.70898 33.8774 8.72571C33.5162 8.74127 33.377 8.94437 33.0327 8.98545C32.7827 9.07037 32.5761 9.01087 32.4121 8.80726C32.1457 8.88489 31.878 8.9566 31.6094 9.02248C31.1331 9.09762 30.625 9.05545 30.148 9.07375C29.8319 9.08274 29.5156 9.09732 29.1996 9.11716C29.0527 9.4549 28.8607 9.51709 28.6237 9.30359C28.2811 9.42598 28.2141 9.38843 27.8147 9.67171C26.9098 10.3138 26.1459 10.7878 25.1333 11.2787C20.7319 13.4133 17.8614 17.7964 17.1965 22.7076ZM22.1012 8.00542C24.2667 6.60385 27.1162 5.14949 29.3596 4.62107C30.4968 4.35296 32.1931 3.73127 33.4065 3.8388C33.6942 3.86426 33.9609 3.96686 34.2458 3.98669C34.4659 4.00206 34.6583 3.83205 34.8953 3.8838C35.0611 3.92004 34.9272 4.29765 35.1056 4.3306C35.4787 4.39899 35.8454 4.12283 36.1812 3.99349C36.3113 5.16726 37.253 3.66593 37.5762 5.06481C39.1105 3.90744 41.1159 5.11404 42.5402 5.78411C42.9627 5.98265 43.0986 6.22957 43.4317 6.50721C43.7418 6.76554 43.7889 6.75073 44.1792 6.90609C45.1512 7.29271 45.9582 7.77327 46.6683 8.593C47.8614 9.97002 48.7573 11.7234 49.8111 13.2264C50.9888 14.9063 51.8946 16.803 52.5032 18.8061C54.7026 26.0489 52.647 34.4758 46.5546 39.3521C36.8779 47.0967 22.0121 42.2903 16.6059 32.1588C12.4294 24.3311 14.1916 13.1237 22.1012 8.00542Z" fill="#5C35C0"/>
</g>
</svg>
