<svg width="64" height="60" viewBox="0 0 64 60" fill="none" xmlns="http://www.w3.org/2000/svg">
<g id="Group 1000004718">
<g id="Group 1000004717">
<g id="Group 1000004715">
<path id="Vector" fill-rule="evenodd" clip-rule="evenodd" d="M21.0696 20.6011C20.5173 21.0514 20.5558 21.5933 20.7016 22.362C20.9665 23.7572 22.8174 22.3097 23.3334 21.7788C24.4527 20.6284 24.8627 18.6958 25.8247 17.4067C26.8059 16.0921 27.677 14.3902 28.4716 12.9536C29.2463 11.1611 30.6084 9.622 31.0564 7.71927C31.4543 6.03222 33.1283 5.04899 32.3953 3.39116C32.0903 2.70149 30.7439 2.545 30.3602 3.10296C29.9396 3.7154 29.2005 4.57981 29.2104 5.31326C29.2332 7.03325 28.2477 8.20667 27.6276 9.79371C26.3941 12.9495 25.0485 14.7514 22.6896 18.5338C22.091 19.1776 21.7506 20.0458 21.0696 20.6011Z" fill="#5C35C0"/>
<path id="Vector_2" fill-rule="evenodd" clip-rule="evenodd" d="M41.2916 20.1294C40.62 19.8911 40.1768 20.2052 39.5954 20.7288C38.5404 21.6794 40.7383 22.5102 41.4598 22.6758C43.024 23.0354 44.8888 22.3828 46.49 22.5362C48.1229 22.6926 50.0297 22.5539 51.6701 22.4876C53.6043 22.2195 55.6269 22.5849 57.4858 21.9804C59.1343 21.4449 60.8436 22.3656 61.8802 20.8786C62.3115 20.26 61.7464 19.0278 61.0704 18.9895C60.3286 18.9478 59.2061 18.7646 58.5843 19.1537C57.126 20.066 55.6115 19.8325 53.9331 20.1261C50.5954 20.7096 48.3568 20.4945 43.8994 20.4413C43.0384 20.2638 42.1197 20.4234 41.2916 20.1294Z" fill="#5C35C0"/>
<path id="Vector_3" fill-rule="evenodd" clip-rule="evenodd" d="M21.2493 20.8805C21.8667 20.4512 22.3327 20.8374 22.958 21.5024C24.0928 22.7096 22.0787 24.1864 21.4041 24.5191C19.9418 25.2412 18.064 24.5666 16.5404 25.0008C14.9867 25.4436 13.1322 25.5044 11.5435 25.6319C9.6467 25.5126 7.74358 26.305 5.87736 25.6978C4.22241 25.1603 2.69022 26.6986 1.50641 24.7272C1.01394 23.907 1.40497 22.0809 2.05153 21.9351C2.76101 21.7757 3.81969 21.3638 4.46719 21.8323C5.98575 22.9306 7.41584 22.3944 9.06945 22.5845C12.3577 22.9619 14.4877 22.3539 18.7756 21.6759C19.583 21.3074 20.488 21.4099 21.2493 20.8805Z" fill="#5C35C0"/>
<path id="Vector_4" fill-rule="evenodd" clip-rule="evenodd" d="M20.3036 35.8746C20.4179 35.0913 20.9564 34.819 21.7724 34.5197C23.2535 33.9765 22.9291 36.5665 22.7174 37.3611C22.2591 39.0841 20.6505 40.5772 19.9703 42.2295C19.2767 43.9145 18.1511 45.7156 17.2348 47.2924C15.9679 49.0531 15.2775 51.2293 13.7191 52.7415C12.3378 54.083 12.3552 56.2395 10.3568 56.4862C9.5254 56.5888 8.60831 55.3945 8.92142 54.7106C9.26539 53.9604 9.66787 52.7628 10.3727 52.3539C12.0254 51.3948 12.5819 49.7861 13.7412 48.2898C16.0461 45.3142 16.9963 43.0038 19.2568 38.598C19.5292 37.6602 20.1627 36.8406 20.3036 35.8746Z" fill="#5C35C0"/>
<path id="Vector_5" fill-rule="evenodd" clip-rule="evenodd" d="M32.5563 46.9556C31.6793 47.0162 31.3205 46.4346 30.902 45.5246C30.1424 43.8727 33.0364 43.6074 33.9364 43.6616C35.8879 43.7783 37.7098 45.3431 39.6072 45.7458C41.5422 46.1563 43.6518 47.0594 45.4914 47.7666C47.5718 48.8507 50.0487 49.1327 51.8863 50.6321C53.5163 51.9608 55.8949 51.3925 56.3831 53.7448C56.5861 54.7233 55.3668 56.1346 54.578 55.9298C53.7128 55.7045 52.3473 55.5221 51.8198 54.7741C50.5826 53.0204 48.7467 52.7561 46.9698 51.735C43.4362 49.7049 40.7832 49.1429 35.6756 47.5294C34.611 47.4383 33.6378 46.8807 32.5563 46.9556Z" fill="#5C35C0"/>
<path id="Vector_6" fill-rule="evenodd" clip-rule="evenodd" d="M39.2782 21.7076C39.3698 22.4144 39.8505 22.6673 40.5806 22.9486C41.9058 23.4591 41.6516 21.1232 41.4725 20.4048C41.0851 18.8473 39.6589 17.48 39.0708 15.9829C38.471 14.4561 37.484 12.8186 36.6822 11.386C35.5675 9.78276 34.9777 7.8139 33.5971 6.4301C32.3733 5.20256 32.4204 3.26173 30.6252 3.01061C29.8784 2.90615 29.0355 3.9678 29.3074 4.58795C29.6061 5.26821 29.9509 6.35203 30.5794 6.7303C32.053 7.61764 32.5305 9.07371 33.5522 10.4374C35.5835 13.1492 36.4052 15.2426 38.3757 19.2411C38.6072 20.0892 39.1655 20.8361 39.2782 21.7076Z" fill="#5C35C0"/>
<path id="Vector_7" fill-rule="evenodd" clip-rule="evenodd" d="M42.9645 31.6846C42.1552 31.7433 42.1158 32.4114 42.1812 33.4367C42.3001 35.2978 45.0019 35.1735 45.7764 34.9897C47.4562 34.5919 48.3241 32.6742 49.8182 31.9803C51.3419 31.2727 52.7841 30.0174 54.0803 29.0082C55.4094 27.5648 57.4769 26.9176 58.3903 25.0673C59.2011 23.4273 61.5903 23.6971 60.8931 21.1301C60.6031 20.0622 57.8803 20.522 57.7265 19.3669C57.0651 19.7276 56.9846 20.2617 56.8752 21.1301C56.6181 23.1664 54.576 23.2517 53.4866 24.5856C51.3198 27.2377 49.2303 28.2069 45.4631 30.6374C44.5599 30.8836 43.9625 31.6123 42.9645 31.6846Z" fill="#5C35C0"/>
<path id="Vector_8" fill-rule="evenodd" clip-rule="evenodd" d="M22.1494 35.7801C22.9268 35.9292 23.1749 36.4792 23.4377 37.3077C23.9144 38.8115 21.3414 38.3723 20.557 38.1254C18.8561 37.5909 17.4361 35.9175 15.8157 35.1644C14.1631 34.3966 12.414 33.1919 10.8795 32.2064C9.17686 30.8624 7.03349 30.0758 5.5921 28.4518C4.31342 27.0121 2.15823 26.9336 2.0007 24.9262C1.93517 24.091 3.1691 23.228 3.83843 23.5712C4.57259 23.9482 5.75112 24.4036 6.12822 25.1259C7.01285 26.8196 8.5952 27.4472 10.0384 28.6718C12.9086 31.1068 15.1744 32.1589 19.4753 34.6132C20.4 34.927 21.1906 35.5964 22.1494 35.7801Z" fill="#5C35C0"/>
<path id="Vector_9" fill-rule="evenodd" clip-rule="evenodd" d="M31.057 44.177C31.5587 43.4729 32.211 43.7201 33.1429 44.2127C34.8342 45.1073 33.2271 47.4883 32.6265 48.1081C31.3248 49.4529 29.0359 49.4233 27.557 50.4755C26.0489 51.5487 24.0687 52.3166 22.4013 53.0572C20.3058 53.6437 18.5549 55.2322 16.3045 55.2721C14.3093 55.3085 13.2466 57.5747 11.2078 55.8607C10.3597 55.1477 10.0785 52.9975 10.7209 52.5931C11.426 52.1501 12.4112 51.2981 13.2913 51.5669C15.3553 52.1969 16.6939 51.0682 18.5538 50.6513C22.2521 49.8216 24.3192 48.3495 28.6908 45.9846C29.4211 45.2752 30.4385 45.0454 31.057 44.177Z" fill="#5C35C0"/>
<path id="Vector_10" fill-rule="evenodd" clip-rule="evenodd" d="M42.2672 34.9221C41.6269 34.4565 41.6364 33.8532 41.7509 32.9916C41.959 31.4278 44.1009 32.9196 44.7058 33.4767C46.0179 34.6839 46.5914 36.8023 47.7377 38.173C48.9068 39.5708 49.9775 41.4049 50.9472 42.9495C51.9165 44.89 53.5219 46.5135 54.1357 48.5963C54.6807 50.4431 56.5979 51.4308 55.8867 53.3146C55.5908 54.0983 54.107 54.3546 53.6472 53.7593C53.1431 53.1059 52.2701 52.1925 52.236 51.3784C52.1557 49.4693 50.9905 48.2283 50.2052 46.5062C48.6431 43.0817 47.0399 41.1658 44.1911 37.1154C43.4876 36.4382 43.0568 35.4961 42.2672 34.9221Z" fill="#5C35C0"/>
</g>
</g>
<path id="react-path-28" fill-rule="evenodd" clip-rule="evenodd" d="M43.4286 17.9943C41.6846 18.1721 42.7756 16.5932 43.7361 16.295C44.8076 15.9623 46.0074 16.0568 47.1113 15.9638C50.4864 15.6793 53.6744 15.5666 57.0483 15.8608C57.5516 15.9049 59.7965 16.1695 58.7452 17.0937C58.0166 17.734 55.5166 17.2062 54.6636 17.1795C50.9151 17.0621 47.1548 17.6143 43.4286 17.9943Z" fill="#5C35C0"/>
<path id="react-path-28_2" fill-rule="evenodd" clip-rule="evenodd" d="M34.5036 50.989C33.6108 50.9065 33.9989 49.5246 34.4673 49.3744C34.9899 49.2069 35.6293 49.4754 36.1967 49.5466C37.9314 49.7644 39.5881 50.1225 41.3894 50.9053C41.6581 51.0223 42.8646 51.6104 42.4213 52.3585C42.114 52.8769 40.7433 51.9943 40.2935 51.843C38.3165 51.1778 36.4111 51.1649 34.5036 50.989Z" fill="#5C35C0"/>
<path id="react-path-28_3" fill-rule="evenodd" clip-rule="evenodd" d="M43.1245 53.4909C42.9142 53.4084 43.0056 52.0266 43.1159 51.8764C43.239 51.7089 43.3895 51.9773 43.5231 52.0486C43.9316 52.2664 43.7452 51.8957 44.1693 52.6785C44.2326 52.7955 44.4445 52.7427 44.3401 53.4909C44.2677 54.0093 43.7844 54.025 43.6785 53.8736C43.6785 54.0444 43.5736 53.6669 43.1245 53.4909Z" fill="#5C35C0"/>
</g>
</svg>
