<svg width="23" height="28" viewBox="0 0 23 28" fill="none" xmlns="http://www.w3.org/2000/svg">
<g id="&#60;Group&#62;">
<g id="&#60;Group&#62;_2">
<path id="&#60;Path&#62;" d="M19.1264 14.5596C19.14 13.5369 19.4217 12.5342 19.9452 11.6447C20.4687 10.7553 21.2169 10.0079 22.1204 9.47229C21.5465 8.68181 20.7893 8.03128 19.9091 7.57237C19.0288 7.11345 18.0497 6.85879 17.0496 6.82861C14.9161 6.61265 12.8477 8.05977 11.7606 8.05977C10.6523 8.05977 8.97842 6.85005 7.17591 6.88582C6.00999 6.92215 4.87371 7.24911 3.87778 7.83484C2.88186 8.42058 2.06024 9.24511 1.493 10.2281C-0.964171 14.3307 0.868658 20.3602 3.22242 23.6764C4.40006 25.3003 5.77639 27.1142 7.57728 27.0499C9.33955 26.9794 9.99773 25.9662 12.125 25.9662C14.2324 25.9662 14.8499 27.0499 16.6874 27.009C18.5784 26.9794 19.7698 25.3779 20.9061 23.7387C21.7523 22.5816 22.4033 21.3028 22.8353 19.9496C21.7367 19.5015 20.7991 18.7514 20.1396 17.7929C19.48 16.8344 19.1276 15.7099 19.1264 14.5596Z" fill="white"/>
<path id="&#60;Path&#62;_2" d="M15.6541 4.64794C16.6851 3.4543 17.1931 1.92008 17.0701 0.371094C15.4949 0.530645 14.0398 1.25667 12.9948 2.40451C12.4839 2.96526 12.0926 3.61763 11.8433 4.32431C11.5939 5.03099 11.4915 5.77813 11.5417 6.52302C12.3296 6.53085 13.1091 6.36616 13.8214 6.04136C14.5338 5.71657 15.1604 5.24013 15.6541 4.64794Z" fill="white"/>
</g>
</g>
</svg>
