<svg width="49" height="49" viewBox="0 0 49 49" fill="none" xmlns="http://www.w3.org/2000/svg">
<g clip-path="url(#clip0_4804_34)">
<path d="M32.7715 34.7129L34.884 32.4906L37.8471 35.3072L35.7346 37.5296L32.7715 34.7129Z" fill="#7A6D79"/>
<path d="M35.1861 39.5909C34.777 39.202 34.7606 38.5551 35.1495 38.1459L38.4356 34.689C38.8245 34.2799 39.4714 34.2635 39.8805 34.6524L45.5598 40.051C46.9235 41.3473 46.9782 43.5037 45.6818 44.8675L-nan -nanL45.6818 44.8675C44.3855 46.2312 42.2291 46.2858 40.8654 44.9895L35.1861 39.5909Z" fill="#918291"/>
<mask id="mask0_4804_34" style="mask-type:alpha" maskUnits="userSpaceOnUse" x="34" y="34" width="13" height="12">
<path d="M35.1861 39.5948C34.777 39.2059 34.7606 38.559 35.1495 38.1498L38.4356 34.6929C38.8245 34.2838 39.4714 34.2674 39.8805 34.6563L45.5598 40.0549C46.9235 41.3512 46.9782 43.5076 45.6818 44.8714L-nan -nanL45.6818 44.8714C44.3855 46.2351 42.2291 46.2897 40.8654 44.9934L35.1861 39.5948Z" fill="#918291"/>
</mask>
<g mask="url(#mask0_4804_34)">
<path d="M41.332 43.3398L35.2276 37.5371L32.1069 41.5269C35.4353 44.401 42.1249 50.1645 42.2562 50.226C42.4202 50.3029 48.4672 43.4427 46.4324 44.71C44.8047 45.7239 42.3539 44.219 41.332 43.3398Z" fill="#7A6D79"/>
</g>
<path d="M28.8066 34.4668L34.44 28.5406L36.4154 30.4184C36.9609 30.9369 36.9827 31.7995 36.4642 32.345L32.7086 36.2958C32.1901 36.8413 31.3275 36.8631 30.782 36.3446L28.8066 34.4668Z" fill="#DFEEF4"/>
<path d="M27.6855 33.584L33.3189 27.6578L36.3686 30.4204C36.9359 30.9343 36.9688 31.8145 36.4414 32.3692L32.6864 36.3195C32.1767 36.8557 31.3322 36.8873 30.7838 36.3906L27.6855 33.584Z" fill="#F2FBFF"/>
<mask id="mask1_4804_34" style="mask-type:alpha" maskUnits="userSpaceOnUse" x="27" y="27" width="10" height="10">
<path d="M27.8027 33.6211L33.4361 27.6949L36.3867 30.4205C36.9451 30.9364 36.9735 31.8094 36.4497 32.3604L32.6943 36.311C32.181 36.851 31.3292 36.8787 30.7819 36.3732L27.8027 33.6211Z" fill="#F2FBFF"/>
</mask>
<g mask="url(#mask1_4804_34)">
<path d="M34.6288 30.546C35.2691 29.8724 35.2885 29.4115 34.9229 28.9845L34.6367 26.8931C32.2837 29.2697 27.5582 34.0434 27.4803 34.1254C27.3829 34.2278 31.0778 38.0649 31.294 38.2704C31.4669 38.4348 32.5853 37.3753 33.1228 36.825L30.7785 34.5965L34.6288 30.546Z" fill="#DFEEF4"/>
</g>
<path fill-rule="evenodd" clip-rule="evenodd" d="M18.9096 36.1502C27.9236 35.9218 35.0457 28.4294 34.8173 19.4154C34.5889 10.4014 27.0965 3.27932 18.0825 3.5077C9.06856 3.73608 1.94643 11.2285 2.17482 20.2425C2.4032 29.2564 9.89561 36.3786 18.9096 36.1502ZM18.8125 32.3253C25.7138 32.1505 31.1667 26.4141 30.9918 19.5128C30.817 12.6115 25.0806 7.1586 18.1793 7.33345C11.2779 7.50831 5.82507 13.2447 5.99992 20.146C6.17478 27.0473 11.9112 32.5002 18.8125 32.3253Z" fill="#918291"/>
<path d="M30.9921 19.5131C31.1669 26.4145 25.7141 32.1508 18.8127 32.3257C11.9114 32.5005 6.17505 27.0477 6.0002 20.1463C5.82534 13.245 11.2782 7.50864 18.1795 7.33379C25.0809 7.15893 30.8172 12.6118 30.9921 19.5131Z" fill="#DFEEF4" fill-opacity="0.7"/>
<path d="M29.3925 19.5558C29.5449 25.5741 24.7898 30.5765 18.7715 30.729C12.7532 30.8814 7.75084 26.1263 7.59836 20.108C7.44588 14.0897 12.201 9.08733 18.2193 8.93484C24.2376 8.78236 29.24 13.5375 29.3925 19.5558Z" fill="#F2FBFF" fill-opacity="0.5"/>
</g>
<defs>
<clipPath id="clip0_4804_34">
<rect width="48" height="48" fill="white" transform="translate(0.5 0.878906)"/>
</clipPath>
</defs>
</svg>
