<svg width="45" height="49" viewBox="0 0 45 49" fill="none" xmlns="http://www.w3.org/2000/svg">
<path d="M0.171875 37.1093L9.86404 9.87891L43.4408 21.4173L33.7485 48.8787L0.171875 37.1093Z" fill="#888659"/>
<path d="M9.63281 16.3413L11.0174 12.0723L15.2869 13.5721L13.5562 17.8413L9.63281 16.3413Z" fill="#F0BC72"/>
<path d="M7.23828 22.8022L8.62288 18.5332L12.8924 20.033L11.1616 24.3022L7.23828 22.8022Z" fill="#D9D9D9"/>
<path d="M16.1523 18.4174L17.5369 14.1484L21.8065 15.6483L20.0757 19.9175L16.1523 18.4174Z" fill="#F0BC72"/>
<path d="M13.7578 24.8784L15.1424 20.6094L19.4119 22.1092L17.6812 26.3784L13.7578 24.8784Z" fill="#D9D9D9"/>
<path d="M11.2617 31.8159L12.6463 27.5469L16.9158 29.0467L15.1851 33.3159L11.2617 31.8159Z" fill="#D9D9D9"/>
<path d="M2.53514 35.8402L6.45919 24.9941L10.7287 26.494L6.4585 37.3402L2.53514 35.8402Z" fill="#D9D9D9"/>
<path d="M9.09766 37.9174L10.4823 33.6484L14.7518 35.1483L13.021 39.4175L9.09766 37.9174Z" fill="#D9D9D9"/>
<path d="M22.6719 20.6108L24.0565 16.3418L28.326 17.8416L26.5952 22.1108L22.6719 20.6108Z" fill="#D9D9D9"/>
<path d="M20.2773 27.0717L21.6619 22.8027L25.9315 24.3026L24.2007 28.5718L20.2773 27.0717Z" fill="#D9D9D9"/>
<path d="M17.7812 34.0092L19.1658 29.7402L23.4354 31.2401L21.7046 35.5093L17.7812 34.0092Z" fill="#D9D9D9"/>
<path d="M15.6172 40.1088L17.0018 35.8398L21.2713 37.3397L19.5405 41.6089L15.6172 40.1088Z" fill="#D9D9D9"/>
<path d="M28.8594 23.1342L30.244 18.8652L34.5135 20.3651L32.7827 24.6343L28.8594 23.1342Z" fill="#D9D9D9"/>
<path d="M26.4648 29.5952L27.8494 25.3262L32.119 26.826L30.3882 31.0952L26.4648 29.5952Z" fill="#D9D9D9"/>
<path d="M23.9688 36.5327L25.3533 32.2637L29.6229 33.7635L27.8921 38.0327L23.9688 36.5327Z" fill="#D9D9D9"/>
<path d="M21.8047 42.6323L23.1893 38.3633L27.4588 39.8631L25.728 44.1323L21.8047 42.6323Z" fill="#D9D9D9"/>
<path d="M35.5078 25.3549L36.8924 21.0859L41.1619 22.5858L39.4312 26.855L35.5078 25.3549Z" fill="#D9D9D9"/>
<path d="M33.1133 31.8159L34.4979 27.5469L38.7674 29.0467L37.0366 33.3159L33.1133 31.8159Z" fill="#D9D9D9"/>
<path d="M30.6172 38.7534L32.0018 34.4844L36.2713 35.9842L34.5405 40.2534L30.6172 38.7534Z" fill="#F0BC72"/>
<path d="M28.4531 44.853L29.8377 40.584L34.1072 42.0838L32.3765 46.353L28.4531 44.853Z" fill="#F0BC72"/>
<path d="M9.74805 9.99431L11.2479 0.878906L44.8246 12.6483L43.44 21.4175L9.74805 9.99431Z" fill="#766D42"/>
<path d="M11.502 9.12523L12.6244 2.95508L43.0078 13.3323L42.0729 19.5025L11.502 9.12523Z" fill="#F0BC72"/>
</svg>
