<svg width="49" height="49" viewBox="0 0 49 49" fill="none" xmlns="http://www.w3.org/2000/svg">
<g filter="url(#filter0_d_4804_1800)">
<rect x="0.757812" y="1.08594" width="48" height="48" fill="#FCFCFC"/>
<rect width="48" height="48" rx="2" transform="matrix(1 0 0 -1 0.757812 49.0859)" fill="#FEFEFE"/>
<rect x="4.33398" y="33.9492" width="40.9395" height="1.33333" rx="0.416577" fill="#EDEDED"/>
<rect x="4.33398" y="36.6152" width="40.9395" height="1.33333" rx="0.416577" fill="#EDEDED"/>
<rect x="4.24219" y="40.7539" width="40.9395" height="1.33333" rx="0.416577" fill="#EDEDED"/>
<rect x="4.24219" y="43.4199" width="40.9395" height="1.33333" rx="0.416577" fill="#EDEDED"/>
<rect x="3.93359" y="4.96484" width="40.8477" height="25.8887" fill="#BAEAF5"/>
<path d="M27.1074 15.1602H21.6074C21.4748 15.1602 21.3476 15.2128 21.2539 15.3066C21.1601 15.4004 21.1074 15.5275 21.1074 15.6602V20.1602C21.1074 20.2928 21.1601 20.4199 21.2539 20.5137C21.3476 20.6075 21.4748 20.6602 21.6074 20.6602H27.1074C27.24 20.6602 27.3672 20.6075 27.461 20.5137C27.5547 20.4199 27.6074 20.2928 27.6074 20.1602V15.6602C27.6074 15.5275 27.5547 15.4004 27.461 15.3066C27.3672 15.2128 27.24 15.1602 27.1074 15.1602ZM25.2324 16.6602C25.3066 16.6602 25.3791 16.6821 25.4408 16.7234C25.5024 16.7646 25.5505 16.8231 25.5789 16.8916C25.6073 16.9602 25.6147 17.0356 25.6002 17.1083C25.5857 17.1811 25.55 17.2479 25.4976 17.3003C25.4451 17.3528 25.3783 17.3885 25.3056 17.403C25.2328 17.4174 25.1574 17.41 25.0889 17.3816C25.0204 17.3532 24.9618 17.3052 24.9206 17.2435C24.8794 17.1818 24.8574 17.1093 24.8574 17.0352C24.8574 16.9357 24.8969 16.8403 24.9673 16.77C25.0376 16.6997 25.133 16.6602 25.2324 16.6602ZM27.1074 20.1602H21.6074V18.9317L23.0555 17.4833C23.0788 17.46 23.1063 17.4416 23.1367 17.429C23.167 17.4164 23.1996 17.41 23.2324 17.41C23.2653 17.41 23.2978 17.4164 23.3282 17.429C23.3585 17.4416 23.3861 17.46 23.4093 17.4833L25.5137 19.587C25.5606 19.6339 25.6242 19.6603 25.6905 19.6603C25.7569 19.6603 25.8205 19.6339 25.8674 19.587C25.9143 19.5401 25.9407 19.4765 25.9407 19.4102C25.9407 19.3438 25.9143 19.2802 25.8674 19.2333L25.3155 18.6817L25.7637 18.2333C25.8106 18.1864 25.8741 18.1601 25.9404 18.1601C26.0067 18.1601 26.0702 18.1864 26.1171 18.2333L27.1074 19.2248V20.1602Z" fill="#5A8A95"/>
</g>
<defs>
<filter id="filter0_d_4804_1800" x="-14.2422" y="-13.9141" width="80" height="80" filterUnits="userSpaceOnUse" color-interpolation-filters="sRGB">
<feFlood flood-opacity="0" result="BackgroundImageFix"/>
<feColorMatrix in="SourceAlpha" type="matrix" values="0 0 0 0 0 0 0 0 0 0 0 0 0 0 0 0 0 0 127 0" result="hardAlpha"/>
<feOffset dx="1" dy="1"/>
<feGaussianBlur stdDeviation="8"/>
<feComposite in2="hardAlpha" operator="out"/>
<feColorMatrix type="matrix" values="0 0 0 0 0 0 0 0 0 0 0 0 0 0 0 0 0 0 0.02 0"/>
<feBlend mode="normal" in2="BackgroundImageFix" result="effect1_dropShadow_4804_1800"/>
<feBlend mode="normal" in="SourceGraphic" in2="effect1_dropShadow_4804_1800" result="shape"/>
</filter>
</defs>
</svg>
