<svg width="49" height="49" viewBox="0 0 49 49" fill="none" xmlns="http://www.w3.org/2000/svg">
<g clip-path="url(#clip0_4804_5236)">
<rect x="0.757812" y="1.08594" width="48" height="48" fill="#FCFCFC"/>
<path d="M0.757812 3.08594C0.757812 1.98137 1.65324 1.08594 2.75781 1.08594H46.7578C47.8624 1.08594 48.7578 1.98137 48.7578 3.08594V9.08594H0.757812V3.08594Z" fill="#144183"/>
<path d="M0.757812 47.4196C0.757812 48.3399 1.50384 49.0859 2.42412 49.0859H47.0915C48.0118 49.0859 48.7578 48.3399 48.7578 47.4196V9.08594H0.757812V47.4196Z" fill="#FEFEFE"/>
<rect x="15.0957" y="16.5566" width="30" height="1.33333" rx="0.416577" fill="#EFEFEF"/>
<rect x="15.0957" y="19.2227" width="30" height="1.33333" rx="0.416577" fill="#EFEFEF"/>
<rect x="15.0957" y="29.0684" width="30" height="1.33333" rx="0.416577" fill="#EFEFEF"/>
<rect x="15.0957" y="31.7344" width="30" height="1.33333" rx="0.416577" fill="#EFEFEF"/>
<rect x="15.0957" y="40.541" width="30" height="1.33333" rx="0.416577" fill="#EFEFEF"/>
<rect x="15.0957" y="43.207" width="30" height="1.33333" rx="0.416577" fill="#EFEFEF"/>
<ellipse cx="33.5039" cy="5.08594" rx="1.5" ry="1.5" fill="#ED6767"/>
<ellipse cx="38.5039" cy="5.08594" rx="1.5" ry="1.5" fill="#D6F06E"/>
<ellipse cx="43.5039" cy="5.08594" rx="1.5" ry="1.5" fill="#50D665"/>
<g clip-path="url(#clip1_4804_5236)">
<path d="M8.46485 14.5527C7.82206 14.5527 7.1937 14.7433 6.65924 15.1005C6.12478 15.4576 5.70822 15.9652 5.46224 16.559C5.21625 17.1529 5.15189 17.8063 5.27729 18.4368C5.4027 19.0672 5.71223 19.6463 6.16675 20.1008C6.62127 20.5554 7.20036 20.8649 7.8308 20.9903C8.46124 21.1157 9.11471 21.0513 9.70857 20.8053C10.3024 20.5594 10.81 20.1428 11.1671 19.6083C11.5242 19.0739 11.7148 18.4455 11.7148 17.8027C11.7139 16.9411 11.3712 16.1149 10.7619 15.5056C10.1526 14.8963 9.32652 14.5536 8.46485 14.5527ZM10.2148 18.0527H8.46485C8.39854 18.0527 8.33495 18.0264 8.28807 17.9795C8.24118 17.9326 8.21485 17.869 8.21485 17.8027V16.0527C8.21485 15.9864 8.24118 15.9228 8.28807 15.876C8.33495 15.8291 8.39854 15.8027 8.46485 15.8027C8.53115 15.8027 8.59474 15.8291 8.64162 15.876C8.68851 15.9228 8.71485 15.9864 8.71485 16.0527V17.5527H10.2148C10.2811 17.5527 10.3447 17.5791 10.3916 17.626C10.4385 17.6728 10.4648 17.7364 10.4648 17.8027C10.4648 17.869 10.4385 17.9326 10.3916 17.9795C10.3447 18.0264 10.2811 18.0527 10.2148 18.0527Z" fill="#144183"/>
</g>
<path d="M10.9648 26.8027H10.2148V26.5527C10.2148 26.4864 10.1885 26.4228 10.1416 26.376C10.0947 26.3291 10.0311 26.3027 9.96484 26.3027C9.89854 26.3027 9.83495 26.3291 9.78807 26.376C9.74118 26.4228 9.71484 26.4864 9.71484 26.5527V26.8027H7.21484V26.5527C7.21484 26.4864 7.1885 26.4228 7.14162 26.376C7.09474 26.3291 7.03115 26.3027 6.96484 26.3027C6.89854 26.3027 6.83495 26.3291 6.78807 26.376C6.74118 26.4228 6.71484 26.4864 6.71484 26.5527V26.8027H5.96484C5.83224 26.8027 5.70506 26.8554 5.61129 26.9492C5.51752 27.0429 5.46484 27.1701 5.46484 27.3027V32.3027C5.46484 32.4353 5.51752 32.5625 5.61129 32.6563C5.70506 32.7501 5.83224 32.8027 5.96484 32.8027H10.9648C11.0975 32.8027 11.2246 32.7501 11.3184 32.6563C11.4122 32.5625 11.4648 32.4353 11.4648 32.3027V27.3027C11.4648 27.1701 11.4122 27.0429 11.3184 26.9492C11.2246 26.8554 11.0975 26.8027 10.9648 26.8027ZM10.9648 28.3027H5.96484V27.3027H6.71484V27.5527C6.71484 27.619 6.74118 27.6826 6.78807 27.7295C6.83495 27.7764 6.89854 27.8027 6.96484 27.8027C7.03115 27.8027 7.09474 27.7764 7.14162 27.7295C7.1885 27.6826 7.21484 27.619 7.21484 27.5527V27.3027H9.71484V27.5527C9.71484 27.619 9.74118 27.6826 9.78807 27.7295C9.83495 27.7764 9.89854 27.8027 9.96484 27.8027C10.0311 27.8027 10.0947 27.7764 10.1416 27.7295C10.1885 27.6826 10.2148 27.619 10.2148 27.5527V27.3027H10.9648V28.3027Z" fill="#144183"/>
<g clip-path="url(#clip2_4804_5236)">
<path d="M8.46484 38.3027C7.73575 38.3036 7.03676 38.5936 6.52121 39.1091C6.00567 39.6247 5.71567 40.3236 5.71484 41.0527C5.71484 43.4059 8.21484 45.183 8.32141 45.2574C8.36344 45.2869 8.41352 45.3027 8.46484 45.3027C8.51617 45.3027 8.56625 45.2869 8.60828 45.2574C8.71484 45.183 11.2148 43.4059 11.2148 41.0527C11.214 40.3236 10.924 39.6247 10.4085 39.1091C9.89293 38.5936 9.19394 38.3036 8.46484 38.3027ZM8.46484 40.0527C8.66263 40.0527 8.85597 40.1114 9.02041 40.2213C9.18486 40.3311 9.31304 40.4873 9.38872 40.6701C9.46441 40.8528 9.48421 41.0538 9.44563 41.2478C9.40704 41.4418 9.3118 41.62 9.17195 41.7598C9.0321 41.8997 8.85392 41.9949 8.65993 42.0335C8.46595 42.0721 8.26489 42.0523 8.08216 41.9766C7.89943 41.9009 7.74326 41.7728 7.63337 41.6083C7.52349 41.4439 7.46484 41.2505 7.46484 41.0527C7.46484 40.7875 7.5702 40.5332 7.75774 40.3456C7.94527 40.1581 8.19963 40.0527 8.46484 40.0527Z" fill="#144183"/>
</g>
</g>
<defs>
<clipPath id="clip0_4804_5236">
<rect width="48" height="48" fill="white" transform="translate(0.5 0.878906)"/>
</clipPath>
<clipPath id="clip1_4804_5236">
<rect width="8" height="8" fill="white" transform="translate(4.46484 13.8027)"/>
</clipPath>
<clipPath id="clip2_4804_5236">
<rect width="8" height="8" fill="white" transform="translate(4.46484 37.8027)"/>
</clipPath>
</defs>
</svg>
