<svg width="49" height="49" viewBox="0 0 49 49" fill="none" xmlns="http://www.w3.org/2000/svg">
<g clip-path="url(#clip0_3105_1680)">
<circle cx="22.3976" cy="24.8781" r="21.8976" fill="#B3E598"/>
<mask id="mask0_3105_1680" style="mask-type:alpha" maskUnits="userSpaceOnUse" x="0" y="2" width="45" height="45">
<circle cx="22.3976" cy="24.8781" r="21.8976" fill="#D9D9D9"/>
</mask>
<g mask="url(#mask0_3105_1680)">
<path d="M38.4886 45.1888H5.30207C4.83334 43.5407 6.22404 29.5371 9.19939 27.5355C11.5797 25.9342 12.4272 22.4684 12.5534 20.9356C13.5488 14.0977 19.3156 12.3521 22.0745 12.334C29.3452 12.5937 31.2711 18.1766 31.3252 20.9356H29.8337V22.7655C29.8337 24.01 31.4931 25.6693 34.8117 28.5731C37.4666 30.8962 38.4886 44.2209 38.4886 45.1888Z" fill="#55340C"/>
<path d="M41.4034 40.1956C23.511 29.2754 8.6077 35.6455 3.39258 40.1956L12.5278 49.7509L33.3182 47.3358C35.9614 44.9242 41.279 40.12 41.4034 40.1956Z" fill="#EDF9E6"/>
<path d="M17.4844 35.5273L17.8052 25.4453H20.1808L25.339 29.9002V36.4652C22.5254 39.2788 18.9303 37.0123 17.4844 35.5273Z" fill="#E88932"/>
<path d="M27.9179 27.3212L28.8557 20.7563L21.2357 19.7012L19.2427 22.1631L17.2497 20.7563C14.9988 20.7563 15.7647 23.4135 16.4291 24.7422L19.2427 27.3212C20.0633 28.2591 22.2204 30.2521 24.2837 30.721C26.347 31.19 27.5662 28.6499 27.9179 27.3212Z" fill="#F59134"/>
<path d="M22.5098 30.0156C23.2233 30.4022 24.591 31.0117 25.3394 30.6908V31.6471C24.2167 31.5599 22.7321 30.3987 22.5098 30.0156Z" fill="#C9772C"/>
<path d="M19.6264 28.2955L18.5645 26.8992C18.5096 26.8271 18.6067 26.738 18.6739 26.7988L19.8845 27.8942L19.6264 28.2955Z" fill="#C9772C"/>
</g>
<path d="M47.2257 12.1411L44.5863 14.4186L45.3904 17.8247C45.4348 18.0096 45.4234 18.2035 45.3576 18.3819C45.2918 18.5603 45.1747 18.7152 45.0209 18.827C44.8671 18.9389 44.6836 19.0026 44.4936 19.0103C44.3036 19.0179 44.1156 18.969 43.9534 18.8699L40.9914 17.0469L38.0276 18.8699C37.8653 18.9685 37.6776 19.0169 37.4879 19.009C37.2982 19.0011 37.1151 18.9372 36.9617 18.8255C36.8082 18.7137 36.6913 18.559 36.6255 18.381C36.5598 18.2029 36.5482 18.0093 36.5923 17.8247L37.3994 14.4186L34.7599 12.1411C34.6164 12.017 34.5126 11.8534 34.4615 11.6707C34.4104 11.488 34.4142 11.2943 34.4725 11.1138C34.5308 10.9333 34.6411 10.774 34.7894 10.6557C34.9377 10.5375 35.1176 10.4655 35.3066 10.4489L38.7672 10.1697L40.1022 6.93901C40.1744 6.76294 40.2974 6.61233 40.4555 6.50634C40.6136 6.40034 40.7996 6.34375 40.9899 6.34375C41.1802 6.34375 41.3662 6.40034 41.5243 6.50634C41.6824 6.61233 41.8054 6.76294 41.8776 6.93901L43.212 10.1697L46.6726 10.4489C46.862 10.4649 47.0424 10.5364 47.1913 10.6545C47.3401 10.7726 47.4508 10.932 47.5095 11.1128C47.5682 11.2935 47.5722 11.4875 47.5211 11.6706C47.47 11.8536 47.366 12.0175 47.2222 12.1416L47.2257 12.1411Z" fill="#F5E449"/>
</g>
<defs>
<clipPath id="clip0_3105_1680">
<rect width="48" height="48" fill="white" transform="translate(0.5 0.878906)"/>
</clipPath>
</defs>
</svg>
