<svg width="49" height="49" viewBox="0 0 49 49" fill="none" xmlns="http://www.w3.org/2000/svg">
<g clip-path="url(#clip0_4804_2168)">
<path d="M19.217 19.7403C12.9819 16.1343 13.3182 7.13751 14.2657 3.08984H34.9926C36.1946 13.4332 32.2381 18.4999 30.1096 19.7403C22.0714 23.271 25.2579 27.2214 27.8559 28.7552C35.3682 32.2108 35.7438 42.1521 34.9926 46.6908H14.2657C12.7088 35.3472 17.8567 30.0072 20.6253 28.7552C26.56 24.8488 22.1593 21.1176 19.217 19.7403Z" fill="#F0F0F0"/>
<path d="M14.0559 44.4369V46.5966L34.7807 46.6688L35.0221 45.5823L24.7609 39.1037L24.4792 23.5903C26.0888 20.5915 30.0726 18.5008 30.314 18.5008C33.2757 14.8953 34.2575 10.4797 34.3783 8.72266H13.9766C14.2985 16.0061 18.4432 18.5009 21.26 20.5532C23.5135 22.195 23.7818 23.262 23.6343 23.5903L23.1648 38.4272L14.0559 44.4369Z" fill="#E8BD27"/>
<rect x="4.60547" y="0.878906" width="39.7876" height="2.21042" fill="#C16B2D"/>
<rect x="10.1289" y="3.08984" width="43.6007" height="2.21042" transform="rotate(90 10.1289 3.08984)" fill="#C16B2D"/>
<rect x="41.0801" y="3.06836" width="43.6007" height="2.21042" transform="rotate(90 41.0801 3.06836)" fill="#C16B2D"/>
<rect x="4.60547" y="46.668" width="39.7876" height="2.21042" fill="#C16B2D"/>
</g>
<defs>
<clipPath id="clip0_4804_2168">
<rect width="48" height="48" fill="white" transform="translate(0.5 0.878906)"/>
</clipPath>
</defs>
</svg>
