<svg width="25" height="25" viewBox="0 0 25 25" fill="none" xmlns="http://www.w3.org/2000/svg">
<g id="Icons">
<path id="Vector" d="M22.6776 15.1424V15.133C22.6759 15.1259 22.6737 15.119 22.671 15.1124C22.6088 14.9426 22.5364 14.7767 22.4544 14.6155L18.5573 5.75798C18.5197 5.67267 18.4666 5.59509 18.4007 5.52923C18.1221 5.25059 17.7914 5.02955 17.4273 4.87874C17.0633 4.72793 16.6731 4.65031 16.2791 4.65031C15.8851 4.65031 15.4949 4.72793 15.1309 4.87874C14.7669 5.02955 14.4361 5.25059 14.1576 5.52923C14.0174 5.66955 13.9385 5.85966 13.9382 6.05798V8.40173H10.9382V6.05798C10.9383 5.95946 10.9189 5.86189 10.8813 5.77085C10.8436 5.6798 10.7884 5.59706 10.7188 5.52736C10.4402 5.24871 10.1095 5.02767 9.74546 4.87686C9.38144 4.72606 8.99127 4.64844 8.59725 4.64844C8.20323 4.64844 7.81306 4.72606 7.44904 4.87686C7.08502 5.02767 6.75427 5.24871 6.47569 5.52736C6.40974 5.59322 6.35665 5.67079 6.31913 5.75611L2.42569 14.6155C2.34368 14.7767 2.27136 14.9426 2.20913 15.1124C2.20652 15.1188 2.20433 15.1253 2.20256 15.132C2.20256 15.132 2.20256 15.1395 2.20256 15.1424C1.81537 16.2611 1.88464 17.4874 2.39537 18.5555C2.9061 19.6235 3.81714 20.4473 4.93106 20.8482C6.04497 21.2491 7.27202 21.195 8.34627 20.6974C9.42052 20.1999 10.2554 19.2991 10.6701 18.1902C10.8526 17.6921 10.9447 17.1654 10.9419 16.6349V9.90173H13.9419V16.6358C13.9392 17.1663 14.0312 17.693 14.2138 18.1911C14.6284 19.3 15.4634 20.2008 16.5376 20.6984C17.6119 21.1959 18.8389 21.2501 19.9528 20.8491C21.0667 20.4482 21.9778 19.6244 22.4885 18.5564C22.9992 17.4883 23.0685 16.2621 22.6813 15.1433L22.6776 15.1424ZM9.25725 17.6736C8.9803 18.4126 8.42332 19.0127 7.70699 19.3439C6.99067 19.675 6.1727 19.7106 5.43032 19.4429C4.68795 19.1752 4.08096 18.6257 3.74089 17.9136C3.40082 17.2014 3.35505 16.384 3.6135 15.6383L3.78319 15.2511C4.09507 14.6583 4.59639 14.1869 5.20727 13.912C5.81816 13.6372 6.50346 13.5747 7.15398 13.7345C7.8045 13.8943 8.38282 14.2673 8.79678 14.7939C9.21075 15.3206 9.43654 15.9706 9.43819 16.6405V16.6517C9.43813 17.0015 9.3769 17.3486 9.25725 17.6774V17.6736ZM19.4694 19.4708C19.016 19.6368 18.5291 19.6909 18.0503 19.6284C17.5714 19.566 17.1147 19.3889 16.719 19.1121C16.3232 18.8354 16.0001 18.4672 15.7771 18.0388C15.5542 17.6105 15.4379 17.1346 15.4382 16.6517V16.6414C15.4407 15.9719 15.6671 15.3224 16.0813 14.7964C16.4956 14.2704 17.0739 13.8981 17.7242 13.7387C18.3745 13.5794 19.0595 13.6422 19.67 13.9171C20.2805 14.192 20.7815 14.6632 21.0932 15.2558L21.2629 15.643C21.5296 16.3886 21.4908 17.2094 21.1548 17.9264C20.8189 18.6435 20.213 19.1986 19.4694 19.4708Z" fill="#2E2E2E" fill-opacity="0.9"/>
</g>
</svg>
