<svg width="25" height="25" viewBox="0 0 25 25" fill="none" xmlns="http://www.w3.org/2000/svg">
<g id="Icons">
<path id="Vector" d="M20.8965 4.73828H4.39648C3.99866 4.73828 3.61713 4.89632 3.33582 5.17762C3.05452 5.45893 2.89648 5.84046 2.89648 6.23828V19.7383C2.89648 20.1361 3.05452 20.5176 3.33582 20.7989C3.61713 21.0802 3.99866 21.2383 4.39648 21.2383H20.8965C21.2943 21.2383 21.6758 21.0802 21.9571 20.7989C22.2384 20.5176 22.3965 20.1361 22.3965 19.7383V6.23828C22.3965 5.84046 22.2384 5.45893 21.9571 5.17762C21.6758 4.89632 21.2943 4.73828 20.8965 4.73828ZM17.1465 16.7383H8.14648C7.94757 16.7383 7.75681 16.6593 7.61615 16.5186C7.4755 16.378 7.39648 16.1872 7.39648 15.9883C7.39648 15.7894 7.4755 15.5986 7.61615 15.458C7.75681 15.3173 7.94757 15.2383 8.14648 15.2383H17.1465C17.3454 15.2383 17.5362 15.3173 17.6768 15.458C17.8175 15.5986 17.8965 15.7894 17.8965 15.9883C17.8965 16.1872 17.8175 16.378 17.6768 16.5186C17.5362 16.6593 17.3454 16.7383 17.1465 16.7383ZM17.1465 13.7383H8.14648C7.94757 13.7383 7.75681 13.6593 7.61615 13.5186C7.4755 13.378 7.39648 13.1872 7.39648 12.9883C7.39648 12.7894 7.4755 12.5986 7.61615 12.458C7.75681 12.3173 7.94757 12.2383 8.14648 12.2383H17.1465C17.3454 12.2383 17.5362 12.3173 17.6768 12.458C17.8175 12.5986 17.8965 12.7894 17.8965 12.9883C17.8965 13.1872 17.8175 13.378 17.6768 13.5186C17.5362 13.6593 17.3454 13.7383 17.1465 13.7383ZM17.1465 10.7383H8.14648C7.94757 10.7383 7.75681 10.6593 7.61615 10.5186C7.4755 10.378 7.39648 10.1872 7.39648 9.98828C7.39648 9.78937 7.4755 9.5986 7.61615 9.45795C7.75681 9.3173 7.94757 9.23828 8.14648 9.23828H17.1465C17.3454 9.23828 17.5362 9.3173 17.6768 9.45795C17.8175 9.5986 17.8965 9.78937 17.8965 9.98828C17.8965 10.1872 17.8175 10.378 17.6768 10.5186C17.5362 10.6593 17.3454 10.7383 17.1465 10.7383Z" fill="#2E2E2E" fill-opacity="0.9"/>
</g>
</svg>
