<svg width="92" height="96" viewBox="0 0 92 96" fill="none" xmlns="http://www.w3.org/2000/svg">
<path d="M13.2637 89.4111C13.2637 92.9637 10.3837 95.8437 6.83101 95.8437C3.27834 95.8437 0.398339 92.9637 0.398339 89.4111L0.398344 34.0365L13.2637 34.0365L13.2637 89.4111Z" fill="#456C77"/>
<path d="M91.1289 75.8398C91.1289 86.8855 82.1746 95.8398 71.1289 95.8398L13.2611 95.8398L13.2611 4.01003C13.2611 1.80089 15.052 0.010026 17.2611 0.0100262L87.1289 0.0100323C89.3381 0.0100325 91.1289 1.8009 91.1289 4.01003L91.1289 75.8398Z" fill="#C6F0FD"/>
<rect x="83.5371" y="85.5195" width="62.6844" height="3.17388" rx="1.58694" transform="rotate(-180 83.5371 85.5195)" fill="#456C77"/>
<rect x="83.5371" y="41.6797" width="62.6844" height="3.17388" rx="1.58694" transform="rotate(-180 83.5371 41.6797)" fill="#456C77"/>
<rect x="83.5371" y="74.5586" width="62.6844" height="3.17388" rx="1.58694" transform="rotate(-180 83.5371 74.5586)" fill="#456C77"/>
<rect x="83.5371" y="63.5977" width="24.2364" height="3.17388" rx="1.58694" transform="rotate(-180 83.5371 63.5977)" fill="#456C77"/>
<rect x="57.3516" y="63.5977" width="36.4998" height="3.17388" rx="1.58694" transform="rotate(-180 57.3516 63.5977)" fill="#456C77"/>
<rect x="83.5371" y="52.6367" width="49.6505" height="3.17388" rx="1.58694" transform="rotate(-180 83.5371 52.6367)" fill="#456C77"/>
<rect x="31.9414" y="52.6367" width="11.0885" height="3.17388" rx="1.58694" transform="rotate(-180 31.9414 52.6367)" fill="#456C77"/>
<path d="M6.99417 95.793L13.2695 95.793L13.2695 88.9076C12.9209 94.2416 8.9407 95.7203 6.99417 95.793Z" fill="#C6F0FD"/>
<rect x="83.541" y="18.4336" width="38.8884" height="3.17394" rx="1.58697" transform="rotate(-180 83.541 18.4336)" fill="#456C77"/>
<rect x="83.541" y="30.7305" width="38.8884" height="3.17394" rx="1.58697" transform="rotate(-180 83.541 30.7305)" fill="#456C77"/>
<circle cx="29.4475" cy="20.1487" r="8.70182" fill="#F5B945" stroke="#F5B945" stroke-width="2.59059"/>
<g clip-path="url(#clip0_2404_167663)">
<path d="M29.1154 19.5145H30.8325V20.8707H29.3143C29.2948 21.1897 29.2368 21.4773 29.1384 21.7342C29.0595 21.9289 28.9276 22.132 28.7426 22.3428C28.9534 22.2968 29.1349 22.273 29.2857 22.273C29.479 22.273 29.7296 22.31 30.0388 22.3833C30.4618 22.4796 30.7996 22.5285 31.053 22.5285C31.2596 22.5285 31.4397 22.511 31.5919 22.4761C31.7461 22.4412 31.9472 22.368 32.1943 22.2563L32.9648 23.9482C32.5921 24.1339 32.2634 24.263 31.9793 24.3349C31.6973 24.4061 31.3943 24.441 31.0691 24.441C30.7138 24.441 30.3096 24.3789 29.8518 24.2554C29.2529 24.0913 28.8822 23.9964 28.7371 23.9692C28.594 23.944 28.4397 23.9308 28.2736 23.9308C27.7871 23.9308 27.2496 24.1004 26.6626 24.441L25.9297 22.8293C26.7254 22.2612 27.1233 21.6937 27.1233 21.1255C27.1233 21.0948 27.1191 21.0096 27.1114 20.8707H25.9297V19.5145H26.7757C26.6326 19.0182 26.5495 18.7286 26.5321 18.649C26.509 18.5289 26.4972 18.3803 26.4972 18.203C26.4972 17.7318 26.6228 17.3088 26.8741 16.934C27.1233 16.5592 27.4534 16.287 27.8632 16.1187C28.2729 15.9484 28.8236 15.8633 29.5167 15.8633C30.1659 15.8633 30.6796 15.9366 31.0579 16.0818C31.4369 16.2262 31.758 16.4678 32.0184 16.8042C32.2808 17.142 32.4609 17.5497 32.5593 18.0292L30.392 18.367C30.2838 17.965 30.1582 17.6983 30.0172 17.5671C29.8762 17.4359 29.7156 17.3703 29.5363 17.3703C29.3178 17.3703 29.1419 17.4415 29.0072 17.5846C28.8718 17.7276 28.8041 17.9301 28.8041 18.1932C28.8041 18.3342 28.8173 18.4675 28.8445 18.5967C28.8697 18.7279 28.9604 19.0336 29.1154 19.5145Z" fill="#2E2E2E" fill-opacity="0.9"/>
</g>
<defs>
<clipPath id="clip0_2404_167663">
<rect width="7.03516" height="8.57704" fill="white" transform="translate(25.9297 15.8633)"/>
</clipPath>
</defs>
</svg>
