<svg width="25" height="25" viewBox="0 0 25 25" fill="none" xmlns="http://www.w3.org/2000/svg">
<g id="Icons">
<path id="Vector" d="M19.9375 3.14844H4.9375C4.53968 3.14844 4.15814 3.30647 3.87684 3.58778C3.59554 3.86908 3.4375 4.25061 3.4375 4.64844V19.6484C3.4375 20.0463 3.59554 20.4278 3.87684 20.7091C4.15814 20.9904 4.53968 21.1484 4.9375 21.1484H15.1272C15.3242 21.1488 15.5193 21.1101 15.7013 21.0346C15.8833 20.9591 16.0485 20.8484 16.1875 20.7087L20.9978 15.8984C21.1375 15.7595 21.2482 15.5942 21.3237 15.4122C21.3991 15.2303 21.4378 15.0351 21.4375 14.8381V4.64844C21.4375 4.25061 21.2795 3.86908 20.9982 3.58778C20.7169 3.30647 20.3353 3.14844 19.9375 3.14844ZM9.4375 8.39844H15.4375C15.6364 8.39844 15.8272 8.47746 15.9678 8.61811C16.1085 8.75876 16.1875 8.94953 16.1875 9.14844C16.1875 9.34735 16.1085 9.53812 15.9678 9.67877C15.8272 9.81942 15.6364 9.89844 15.4375 9.89844H9.4375C9.23859 9.89844 9.04782 9.81942 8.90717 9.67877C8.76652 9.53812 8.6875 9.34735 8.6875 9.14844C8.6875 8.94953 8.76652 8.75876 8.90717 8.61811C9.04782 8.47746 9.23859 8.39844 9.4375 8.39844ZM12.4375 15.8984H9.4375C9.23859 15.8984 9.04782 15.8194 8.90717 15.6788C8.76652 15.5381 8.6875 15.3474 8.6875 15.1484C8.6875 14.9495 8.76652 14.7588 8.90717 14.6181C9.04782 14.4775 9.23859 14.3984 9.4375 14.3984H12.4375C12.6364 14.3984 12.8272 14.4775 12.9678 14.6181C13.1085 14.7588 13.1875 14.9495 13.1875 15.1484C13.1875 15.3474 13.1085 15.5381 12.9678 15.6788C12.8272 15.8194 12.6364 15.8984 12.4375 15.8984ZM9.4375 12.8984C9.23859 12.8984 9.04782 12.8194 8.90717 12.6788C8.76652 12.5381 8.6875 12.3474 8.6875 12.1484C8.6875 11.9495 8.76652 11.7588 8.90717 11.6181C9.04782 11.4775 9.23859 11.3984 9.4375 11.3984H15.4375C15.6364 11.3984 15.8272 11.4775 15.9678 11.6181C16.1085 11.7588 16.1875 11.9495 16.1875 12.1484C16.1875 12.3474 16.1085 12.5381 15.9678 12.6788C15.8272 12.8194 15.6364 12.8984 15.4375 12.8984H9.4375ZM15.4375 19.3381V15.1484H19.6281L15.4375 19.3381Z" fill="#2E2E2E" fill-opacity="0.9"/>
</g>
</svg>
