<svg width="132" height="120" viewBox="0 0 132 120" fill="none" xmlns="http://www.w3.org/2000/svg">
<g id="Group 1000005273">
<g id="Group 1000005271">
<g id="Group 1000005270">
<g id="Group 1000005269">
<g id="Group 1000005108">
<g id="Group 1000005100">
<rect id="Rectangle 40343" x="75.6094" y="50.0352" width="19.8227" height="10.1526" rx="5.0763" fill="#FFD2B5"/>
<rect id="Rectangle 40344" x="72.4434" y="59.9102" width="19.8227" height="10.1526" rx="5.0763" fill="#FFD2B5"/>
<rect id="Rectangle 40345" x="70.9766" y="69.4648" width="19.8227" height="10.1526" rx="5.0763" fill="#FFD2B5"/>
<rect id="Rectangle 40346" x="67.1621" y="79.8867" width="19.8227" height="10.1526" rx="5.0763" fill="#FFD2B5"/>
<path id="Union" fill-rule="evenodd" clip-rule="evenodd" d="M39.0482 86.1831L33.0306 86.4616L28.1764 57.9039L39.0914 56.9767C39.5695 56.3159 40.187 55.7515 40.9163 55.3304L50.4473 49.8277C50.4625 49.8189 50.4814 49.8307 50.4802 49.8483C50.4793 49.861 50.4894 49.8717 50.5021 49.8718L78.7527 49.9634C83.3574 49.9783 86.8492 54.1203 86.0852 58.6612L81.8913 83.5893C81.2834 87.2022 78.1421 89.839 74.4785 89.8115L47.5821 89.6094C47.5287 89.609 47.4868 89.5635 47.4907 89.5103C47.494 89.4651 47.464 89.4242 47.4199 89.4137L42.351 88.2095C41.0233 87.8941 39.882 87.1666 39.0482 86.1831Z" fill="#E89254"/>
</g>
<g id="Group 1000005101">
<path id="Union_2" d="M40.1735 86.1314L33.0302 86.462L28.176 57.9043L39.989 56.9008L40.1735 86.1314Z" fill="#E89254"/>
</g>
<g id="Group 1000005102">
<rect id="Rectangle 40343_2" x="79.623" y="50.0352" width="15.811" height="10.1526" rx="5.0763" fill="#E38846"/>
<rect id="Rectangle 40344_2" x="79.9609" y="59.9141" width="12.3027" height="10.1526" rx="5.0763" fill="#E38846"/>
<rect id="Rectangle 40345_2" x="74.8906" y="69.4727" width="15.9089" height="10.1526" rx="5.0763" fill="#E38846"/>
<rect id="Rectangle 40346_2" x="70.0371" y="79.8867" width="16.9465" height="10.1526" rx="5.0763" fill="#E38846"/>
<path id="Intersect" fill-rule="evenodd" clip-rule="evenodd" d="M78.1659 49.9747C78.135 53.6861 77.9042 58.9139 77.1552 63.1183C76.1341 68.85 65.2626 80.0208 59.9544 84.8897L60.337 89.7109L82.5856 89.8781L89.293 50.0108L78.1659 49.9747Z" fill="#E38846"/>
</g>
</g>
</g>
<path id="Vector 409" d="M52.5007 39.3255C51.5276 50.757 45.8053 52.8837 44.2192 54.8146L40.084 62.7406L63.1724 54.8146C62.9427 50.4496 62.6211 47.3023 63.1724 37.929C63.7238 28.5558 58.1182 30.3478 55.2465 32.4154L53.2663 35.3264L52.5007 39.3255Z" fill="#E89254"/>
</g>
<path id="Vector 397" d="M39.1892 89.0183L35.912 53.7099C35.7786 52.2731 34.6363 51.1376 33.1986 51.0128L17.8441 49.6807C15.9826 49.5192 14.4322 51.0888 14.6167 52.9482L18.3843 90.926C18.5459 92.5554 19.9904 93.7502 21.6212 93.6035L36.4854 92.2661C38.1301 92.1182 39.3419 90.6626 39.1892 89.0183Z" fill="#365A7C"/>
</g>
<g id="Vector 411" filter="url(#filter0_d_2404_167694)">
<path d="M109.527 3.99375L108.084 7.20461C107.843 7.74037 107.311 8.085 106.723 8.085H104.125C102.774 8.085 102.119 9.73681 103.102 10.6631L105.476 12.8996C105.831 13.2341 106 13.7211 105.929 14.2037L105.447 17.4639C105.261 18.7251 106.64 19.6239 107.719 18.9442L110.205 17.3775C110.68 17.078 111.284 17.0708 111.766 17.3589L114.185 18.804C115.331 19.4889 116.731 18.438 116.393 17.1458L115.654 14.3174C115.512 13.7749 115.687 13.1987 116.106 12.8258L118.503 10.6913C119.527 9.77941 118.882 8.085 117.511 8.085H114.876C114.263 8.085 113.712 7.70974 113.488 7.13902L112.277 4.05934C111.793 2.8301 110.069 2.78896 109.527 3.99375Z" fill="#FCA311"/>
</g>
<g id="Vector 412" filter="url(#filter1_d_2404_167694)">
<path d="M82.3107 13.9508L80.2128 18.6184C79.9721 19.1542 79.4393 19.4988 78.8519 19.4988H74.7969C73.4461 19.4988 72.7906 21.1506 73.7738 22.0769L77.2774 25.3773C77.6325 25.7118 77.8016 26.1988 77.7303 26.6814L77.0359 31.3821C76.8496 32.6433 78.2287 33.5421 79.3074 32.8624L82.9886 30.5427C83.4639 30.2432 84.067 30.2361 84.5492 30.5241L88.2285 32.7221C89.3751 33.4071 90.775 32.3561 90.4372 31.064L89.3215 26.7952C89.1797 26.2527 89.3541 25.6765 89.7729 25.3036L93.365 22.1052C94.3891 21.1932 93.7441 19.4988 92.3728 19.4988H88.2326C87.6193 19.4988 87.0685 19.1236 86.8441 18.5528L85.0601 14.0164C84.5767 12.7871 82.8521 12.746 82.3107 13.9508Z" fill="#FCA311"/>
</g>
<g id="Vector 413" filter="url(#filter2_d_2404_167694)">
<path d="M112.046 31.4145L109.258 37.6177C108.897 38.4213 108.098 38.9383 107.217 38.9383H101.933C99.9064 38.9383 98.9232 41.416 100.398 42.8054L105.035 47.1731C105.567 47.6749 105.821 48.4053 105.714 49.1292L104.789 55.3909C104.509 57.2828 106.578 58.631 108.196 57.6115L113.063 54.5445C113.776 54.0953 114.681 54.0845 115.404 54.5166L120.233 57.4011C121.952 58.4285 124.052 56.8521 123.546 54.9138L122.078 49.2999C121.866 48.4861 122.127 47.6218 122.755 47.0625L127.489 42.8478C129.025 41.4799 128.057 38.9383 126 38.9383H120.615C119.695 38.9383 118.869 38.3754 118.533 37.5193L116.17 31.5128C115.445 29.669 112.859 29.6073 112.046 31.4145Z" fill="#FCA311"/>
</g>
</g>
<defs>
<filter id="filter0_d_2404_167694" x="102.631" y="3.11328" width="17.867" height="16.8085" filterUnits="userSpaceOnUse" color-interpolation-filters="sRGB">
<feFlood flood-opacity="0" result="BackgroundImageFix"/>
<feColorMatrix in="SourceAlpha" type="matrix" values="0 0 0 0 0 0 0 0 0 0 0 0 0 0 0 0 0 0 127 0" result="hardAlpha"/>
<feOffset dx="1.49203" dy="0.746013"/>
<feComposite in2="hardAlpha" operator="out"/>
<feColorMatrix type="matrix" values="0 0 0 0 0.92549 0 0 0 0 0.458824 0 0 0 0 0.137255 0 0 0 1 0"/>
<feBlend mode="normal" in2="BackgroundImageFix" result="effect1_dropShadow_2404_167694"/>
<feBlend mode="normal" in="SourceGraphic" in2="effect1_dropShadow_2404_167694" result="shape"/>
</filter>
<filter id="filter1_d_2404_167694" x="73.3027" y="13.0703" width="22.0565" height="20.7734" filterUnits="userSpaceOnUse" color-interpolation-filters="sRGB">
<feFlood flood-opacity="0" result="BackgroundImageFix"/>
<feColorMatrix in="SourceAlpha" type="matrix" values="0 0 0 0 0 0 0 0 0 0 0 0 0 0 0 0 0 0 127 0" result="hardAlpha"/>
<feOffset dx="1.49203" dy="0.746013"/>
<feComposite in2="hardAlpha" operator="out"/>
<feColorMatrix type="matrix" values="0 0 0 0 0.92549 0 0 0 0 0.458824 0 0 0 0 0.137255 0 0 0 1 0"/>
<feBlend mode="normal" in2="BackgroundImageFix" result="effect1_dropShadow_2404_167694"/>
<feBlend mode="normal" in="SourceGraphic" in2="effect1_dropShadow_2404_167694" result="shape"/>
</filter>
<filter id="filter2_d_2404_167694" x="99.6895" y="30.0938" width="30.0448" height="28.6132" filterUnits="userSpaceOnUse" color-interpolation-filters="sRGB">
<feFlood flood-opacity="0" result="BackgroundImageFix"/>
<feColorMatrix in="SourceAlpha" type="matrix" values="0 0 0 0 0 0 0 0 0 0 0 0 0 0 0 0 0 0 127 0" result="hardAlpha"/>
<feOffset dx="1.49203" dy="0.746013"/>
<feComposite in2="hardAlpha" operator="out"/>
<feColorMatrix type="matrix" values="0 0 0 0 0.92549 0 0 0 0 0.458824 0 0 0 0 0.137255 0 0 0 1 0"/>
<feBlend mode="normal" in2="BackgroundImageFix" result="effect1_dropShadow_2404_167694"/>
<feBlend mode="normal" in="SourceGraphic" in2="effect1_dropShadow_2404_167694" result="shape"/>
</filter>
</defs>
</svg>
