<svg width="136" height="121" viewBox="0 0 136 121" fill="none" xmlns="http://www.w3.org/2000/svg">
<g id="Group 1000005260">
<g id="Group 1000005203">
<path id="Vector 406" d="M25.0991 19.881L26.0596 27.6014C26.3184 29.6813 28.2143 31.1576 30.2942 30.8988C32.3742 30.6401 33.8505 28.7442 33.5917 26.6642L33.0294 22.145C32.4601 17.5691 35.708 13.3981 40.2839 12.8288L50.0756 11.6105C54.6515 11.0412 58.8224 14.2891 59.3918 18.865L59.9072 23.0076C60.1919 25.2956 62.2774 26.9195 64.5653 26.6349C66.8532 26.3502 68.4772 24.2647 68.1925 21.9768L67.2788 14.633C66.4895 8.2892 60.707 3.78639 54.3632 4.57569L35.1564 6.96539C28.8126 7.75468 24.3098 13.5372 25.0991 19.881Z" fill="#9E6031"/>
<rect id="Rectangle 40384" x="7.62109" y="47.1016" width="83.9169" height="46.8921" rx="4" transform="rotate(-7.09227 7.62109 47.1016)" fill="#9E6031"/>
<path id="Rectangle 40383" d="M2.51731 31.5749C2.24455 29.3826 3.8006 27.3844 5.99283 27.1116L87.5745 16.9612C89.7667 16.6885 91.765 18.2445 92.0378 20.4368L94.2622 38.3153C94.4909 40.1531 93.4282 41.9074 91.6936 42.5559L51.9022 57.4324C51.3122 57.6529 50.6785 57.7311 50.0526 57.6604L8.26322 52.9415C6.42636 52.7341 4.97088 51.295 4.74265 49.4607L2.51731 31.5749Z" fill="#BC763B"/>
<rect id="Rectangle 40385" x="45.5293" y="54.4375" width="10.4896" height="10.4896" rx="2" transform="rotate(-7.09227 45.5293 54.4375)" fill="#E8A674"/>
<g id="Group 1000005203_2">
<rect id="Rectangle 40386" x="70.9766" y="19.0273" width="8.39169" height="66.932" transform="rotate(-7.09227 70.9766 19.0273)" fill="#884E23"/>
<rect id="Rectangle 40388" x="70.7559" y="42.7383" width="14.6855" height="9.96513" rx="2" transform="rotate(-7.09227 70.7559 42.7383)" fill="#6D4427"/>
<rect id="Rectangle 40389" x="73.6387" y="45.1016" width="9.54559" height="4.55444" rx="1" transform="rotate(-7.09227 73.6387 45.1016)" fill="#4D2B13"/>
</g>
<g id="Group 1000005200">
<rect id="Rectangle 40386_2" x="14.2461" y="26.0859" width="8.39169" height="66.932" transform="rotate(-7.09227 14.2461 26.0859)" fill="#884E23"/>
<rect id="Rectangle 40388_2" x="14.0254" y="49.7969" width="14.6855" height="9.96513" rx="2" transform="rotate(-7.09227 14.0254 49.7969)" fill="#6D4427"/>
<rect id="Rectangle 40389_2" x="16.9082" y="52.1602" width="9.54559" height="4.55444" rx="1" transform="rotate(-7.09227 16.9082 52.1602)" fill="#4D2B13"/>
</g>
</g>
<g id="Group 1000005186">
<g id="Group 1000005133">
<path id="Rectangle 40378" d="M111.799 102.598L114.501 99.0559L119.224 102.659L116.521 106.201L111.799 102.598Z" fill="#7A6D79"/>
<path id="Rectangle 40379" d="M116.052 109.268C115.4 108.771 115.274 107.839 115.772 107.187L119.976 101.677C120.474 101.025 121.406 100.9 122.058 101.397L131.109 108.304C133.282 109.963 133.7 113.069 132.041 115.242L-nan -nanL132.041 115.242C130.383 117.416 127.276 117.833 125.103 116.175L116.052 109.268Z" fill="#918291"/>
<g id="Mask group">
<mask id="mask0_2404_167629" style="mask-type:alpha" maskUnits="userSpaceOnUse" x="115" y="101" width="19" height="17">
<path id="Rectangle 40380" d="M116.052 109.268C115.4 108.771 115.274 107.839 115.772 107.187L119.976 101.677C120.474 101.025 121.406 100.9 122.058 101.397L131.109 108.304C133.282 109.963 133.7 113.069 132.041 115.242L-nan -nanL132.041 115.242C130.383 117.416 127.276 117.833 125.103 116.175L116.052 109.268Z" fill="#918291"/>
</mask>
<g mask="url(#mask0_2404_167629)">
<path id="Vector 405" d="M125.515 113.713L115.786 106.289L111.904 112.543C117.163 116.172 127.731 123.447 127.931 123.515C128.18 123.601 135.838 112.742 133.097 114.892C130.905 116.612 127.129 114.823 125.515 113.713Z" fill="#7A6D79"/>
</g>
</g>
<g id="Group 1000005132">
<path id="Rectangle 40377" d="M106.029 102.867L113.236 93.4224L116.385 95.8248C117.254 96.4882 117.421 97.7307 116.758 98.6001L111.953 104.897C111.289 105.766 110.047 105.933 109.178 105.27L106.029 102.867Z" fill="#DFEEF4"/>
<path id="Rectangle 40377_2" d="M104.271 101.766L111.479 92.3209L116.318 95.8327C117.218 96.486 117.403 97.7523 116.729 98.6364L111.925 104.932C111.273 105.787 110.058 105.965 109.188 105.333L104.271 101.766Z" fill="#F2FBFF"/>
<g id="Mask group_2">
<mask id="mask1_2404_167629" style="mask-type:alpha" maskUnits="userSpaceOnUse" x="104" y="92" width="14" height="14">
<path id="Rectangle 40380_2" d="M104.449 101.805L111.656 92.3599L116.346 95.834C117.234 96.4914 117.412 97.7481 116.742 98.6262L111.937 104.922C111.281 105.783 110.055 105.957 109.185 105.312L104.449 101.805Z" fill="#F2FBFF"/>
</mask>
<g mask="url(#mask1_2404_167629)">
<path id="Vector 404" d="M113.827 96.2878C114.646 95.2143 114.602 94.5454 114.006 93.986L113.265 91.0099C110.239 94.8124 104.162 102.45 104.063 102.58C103.938 102.744 109.878 107.706 110.222 107.969C110.498 108.18 111.947 106.474 112.637 105.594L108.901 102.743L113.827 96.2878Z" fill="#DFEEF4"/>
</g>
</g>
</g>
</g>
<path id="Ellipse 417" d="M112.354 80.1845C114.099 93.1693 104.987 105.11 92.002 106.855C79.0171 108.6 67.0763 99.4883 65.3313 86.5034C63.5864 73.5185 72.6982 61.5776 85.6831 59.8327C98.668 58.0878 110.609 67.1996 112.354 80.1845Z" fill="#918291"/>
<path id="Ellipse 418" d="M106.842 80.9245C108.178 90.8661 101.202 100.008 91.2606 101.344C81.319 102.68 72.1768 95.704 70.8408 85.7625C69.5049 75.8209 76.4811 66.6787 86.4226 65.3428C96.3642 64.0068 105.506 70.983 106.842 80.9245Z" fill="#DFEEF4"/>
<path id="Ellipse 419" d="M104.54 81.2364C105.705 89.9059 99.6211 97.8784 90.9516 99.0434C82.2821 100.208 74.3096 94.1248 73.1446 85.4553C71.9796 76.7858 78.0632 68.8134 86.7327 67.6484C95.4022 66.4833 103.375 72.5669 104.54 81.2364Z" fill="#F2FBFF"/>
</g>
</g>
</svg>
