<svg width="25" height="25" viewBox="0 0 25 25" fill="none" xmlns="http://www.w3.org/2000/svg">
<g id="Icons" clip-path="url(#clip0_3229_8462)">
<path id="Vector" d="M22.9375 6.15234V19.6523C22.9375 19.8513 22.8585 20.042 22.7178 20.1827C22.5772 20.3233 22.3864 20.4023 22.1875 20.4023H1.1875C0.988588 20.4023 0.797822 20.3233 0.65717 20.1827C0.516518 20.042 0.4375 19.8513 0.4375 19.6523C0.4375 19.4534 0.516518 19.2627 0.65717 19.122C0.797822 18.9814 0.988588 18.9023 1.1875 18.9023H5.6875V15.1523C5.6875 14.9534 5.76652 14.7627 5.90717 14.622C6.04782 14.4814 6.23859 14.4023 6.4375 14.4023H10.9375V10.6523C10.9375 10.4534 11.0165 10.2627 11.1572 10.122C11.2978 9.98136 11.4886 9.90234 11.6875 9.90234H16.1875V6.15234C16.1875 5.95343 16.2665 5.76267 16.4072 5.62201C16.5478 5.48136 16.7386 5.40234 16.9375 5.40234H22.1875C22.3864 5.40234 22.5772 5.48136 22.7178 5.62201C22.8585 5.76267 22.9375 5.95343 22.9375 6.15234Z" fill="#2E2E2E" fill-opacity="0.9"/>
</g>
<defs>
<clipPath id="clip0_3229_8462">
<rect width="24" height="24" fill="white" transform="translate(0.4375 0.902344)"/>
</clipPath>
</defs>
</svg>
