<svg width="25" height="25" viewBox="0 0 25 25" fill="none" xmlns="http://www.w3.org/2000/svg">
<g id="Icons">
<path id="Vector" d="M22.1052 12.5469L12.7949 3.23657C12.6561 3.09668 12.4909 2.98576 12.3089 2.91028C12.1269 2.8348 11.9317 2.79625 11.7346 2.79688H3.04493C2.84602 2.79688 2.65525 2.8759 2.5146 3.01655C2.37395 3.1572 2.29493 3.34797 2.29493 3.54688V12.2366C2.2943 12.4336 2.33285 12.6288 2.40833 12.8109C2.48381 12.9929 2.59472 13.1581 2.73462 13.2969L12.0449 22.6072C12.1842 22.7465 12.3496 22.857 12.5316 22.9324C12.7136 23.0078 12.9087 23.0467 13.1057 23.0467C13.3027 23.0467 13.4978 23.0078 13.6798 22.9324C13.8618 22.857 14.0272 22.7465 14.1665 22.6072L22.1052 14.6684C22.2446 14.5292 22.3551 14.3638 22.4305 14.1818C22.5059 13.9998 22.5447 13.8047 22.5447 13.6077C22.5447 13.4107 22.5059 13.2156 22.4305 13.0336C22.3551 12.8515 22.2446 12.6862 22.1052 12.5469ZM7.16993 8.79688C6.94743 8.79688 6.72992 8.7309 6.54491 8.60729C6.35991 8.48367 6.21571 8.30797 6.13056 8.1024C6.04542 7.89683 6.02314 7.67063 6.06655 7.45241C6.10995 7.23418 6.2171 7.03372 6.37443 6.87639C6.53177 6.71905 6.73222 6.61191 6.95045 6.5685C7.16868 6.52509 7.39488 6.54737 7.60045 6.63252C7.80602 6.71767 7.98172 6.86186 8.10533 7.04687C8.22895 7.23187 8.29493 7.44938 8.29493 7.67188C8.29493 7.97025 8.1764 8.2564 7.96542 8.46738C7.75445 8.67836 7.4683 8.79688 7.16993 8.79688Z" fill="#2E2E2E" fill-opacity="0.9"/>
</g>
</svg>
